<svg xmlns="http://www.w3.org/2000/svg" width="817" height="423" viewBox="0 0 817 423">
  <defs>
    <style>
      .cls-1 {
        fill: #15dbf2;
      }

      .cls-1, .cls-2 {
        fill-rule: evenodd;
      }

      .cls-2 {
        fill: #fff;
      }
    </style>
  </defs>
  <path id="_1" data-name="1" class="cls-1" d="M747.172,315.852a1.649,1.649,0,0,1,1.12-1.162c0.52,0,3.12,1.642,7.919,4.926,4.759,3.244,7.119,5.086,7.119,5.446,0,2.162-2.04,6.487-6.2,13.015-0.48.761-1,.961-1.48,0.56-2.16-1.481-4.359-3.043-6.6-4.605-2.279-1.562-4.639-3.163-7.159-4.805a71.549,71.549,0,0,1-5.079,9.811c-0.36.881-.88,1.121-1.519,0.721-2.24-1.722-4.56-3.444-6.959-5.086-2.36-1.6-4.84-3.244-7.319-4.886-0.28-.12-0.28-0.52,0-1.121l6-11.893a1.636,1.636,0,0,1,1.12-1.122c0.52,0,2.8,1.322,6.8,3.965a48.689,48.689,0,0,1,7.518,5.846ZM292.814,202.024c-0.24-.12-0.24-0.48,0-1.121l6-12.054a1.606,1.606,0,0,1,1.16-1.121c0.48,0,3.12,1.642,7.879,4.886q6.959,4.744,6.958,5.646c0,2.042-2.039,6.287-6.2,12.814-0.48.881-1,1.162-1.52,0.761a121.237,121.237,0,0,0-14.278-9.811h0Zm-33.031,17.118c-0.24-.12-0.24-0.48,0-1.121l6-12.054a1.6,1.6,0,0,1,1.16-1.121c0.48,0,3.119,1.642,7.879,4.886q6.958,4.745,6.958,5.646c0,2.042-2.039,6.287-6.2,12.814-0.479.881-1,1.162-1.519,0.761a121.32,121.32,0,0,0-14.278-9.811h0Z"/>
  <path id="_2" data-name="2" class="cls-2" d="M815.68,81.291C815.2,82.452,813.6,84.614,811,87.9q-2.64,3.184-4.439,5.166a32.681,32.681,0,0,0-2.72,3.324c-2.279,3.123-3.719,4.525-4.359,4.124a19.887,19.887,0,0,1,2.84-7.448,50.345,50.345,0,0,1,4.879-6.687,0.89,0.89,0,0,0,.2-0.16c0.12-.16.36-0.36,0.68-0.681,0.28-.32.8-0.8,1.479-1.482,0.68-.721,1.6-1.682,2.72-2.923a2.233,2.233,0,0,0-1.4-1.522,5.5,5.5,0,0,0-1.8-.36,6.494,6.494,0,0,0-1.48.36c-0.76.24-1.44,0.521-2.08,0.761a125.547,125.547,0,0,1-22.876,8.73,83.929,83.929,0,0,1-22.276,3.124,54.762,54.762,0,0,1-10.638-1.041,37.571,37.571,0,0,1-9.718-3.284,11.458,11.458,0,0,0,.28,2.162,5.776,5.776,0,0,1-.08,2.723,31.755,31.755,0,0,1-1.12,3.764,14.145,14.145,0,0,1-2.28,3.964c-0.6,0-.92-1.241-0.92-3.764a25.2,25.2,0,0,0-.559-5.566,20.543,20.543,0,0,0-1.6-4.325,42.429,42.429,0,0,0-2.44-3.964c-0.96-1.322-2-2.723-3.119-4.245,0.64-4.4,1.8-6.607,3.559-6.607a6.474,6.474,0,0,1,1.6,1.322,7.022,7.022,0,0,0,1.8,1.522,39.459,39.459,0,0,0,12.718,6.327,52.2,52.2,0,0,0,14.558,1.962,76.687,76.687,0,0,0,19.6-2.523A107.249,107.249,0,0,0,801.2,73.4c4.879-2.283,8.2-3.4,9.958-3.4,3.88,0,5.839,1.882,5.839,5.646A14.079,14.079,0,0,1,815.68,81.291Zm-81.5,89.942,2.8-4.926c0.12-.36.52-0.36,1.12,0,9.438,7.168,14.118,16.779,14.118,28.833a29.743,29.743,0,0,1-2.04,10.772c-0.64,1.482-1.16,2.242-1.52,2.242-0.64,0-.76-0.921-0.4-2.843a27.585,27.585,0,0,0,.6-6.407q0-12.795-14.517-25.629A1.45,1.45,0,0,1,734.175,171.232ZM689.9,236.625c1.04,1.522,2.04,3,3.04,4.526s2,3.083,3,4.725q24.525,38.006,42.017,38.042c6.905,0,11.416-2.408,13.534-7.167,0-2.523-2.56-7.849-7.719-16.018a3.486,3.486,0,0,1-.56-2.083,35.222,35.222,0,0,1,3.2-13.935c0.759-1.242,1.559-1.242,2.439,0,3.16,4.645,5.159,8.369,6.039,11.132,1.64,4,2.44,9.17,2.44,15.458,0,9.05-1.36,15.9-4.16,20.543q-5.985,10.488-15.2,10.53s0,0,0,0h-0.04v0q-11.678-.021-23.116-12.412c-3.4-3.645-7.839-9.131-13.4-16.5q-8.279-11.052-19.6-27.791c-1.24,1.361-2.48,2.683-3.679,3.844-1.2,1.2-2.48,2.483-3.84,3.884,7.519,11.533,11.278,20.984,11.278,28.272a34.013,34.013,0,0,1-1.679,9.211,24.458,24.458,0,0,1-3.4,8.129c-2.4,3.644-6.519,7.328-12.438,11.092-6.119,3.885-11.6,5.847-16.357,5.847q-10.739,0-10.718-16.018,0-21.5,18.437-42.008c-2-2.162-3.68-3.964-4.959-5.486-1.32-1.481-2.44-2.683-3.32-3.564a87.808,87.808,0,0,1-34.034,26.19,19.994,19.994,0,0,1-4.519,1.682c-0.16,0-.2-0.04-0.2-0.16,0-.4,1.56-1.883,4.719-4.526a198.836,198.836,0,0,0,15.038-13.975q7.139-7.329,14.117-15.258-10.738-13.755-10.918-28.632-0.18-24.507,9.6-24.507,9.058,0,26.556,21.5c6.4-8.049,12.038-14.817,16.957-20.383q11.457-13.155,18.077-13.175,5.639,0,5.639,10.932c0,9.531-1.96,17.78-5.839,24.668A167.283,167.283,0,0,1,689.9,236.625Zm-43.632,54.3a5.06,5.06,0,0,0-.16,1.481c0,3.524,2.68,5.286,8.079,5.286q3,0,9.238-2.643a45.446,45.446,0,0,0,14.838-9.811c1.759-1.722,2.479-2.923,2.079-3.564a63.75,63.75,0,0,0-14.677-18.26Q650.07,279.214,646.27,290.927Zm0.2-84.856c-2.12,0-3.2,1.522-3.2,4.525q0,9.25,11.678,22.065c1.639-2.122,3.239-4.205,4.8-6.207,1.559-2.042,3.079-4.045,4.6-6.047C656.588,210.876,650.629,206.071,646.47,206.071Zm25.116,24.307c-0.84-1.121-1.6-2.242-2.36-3.363-3.4,4.405-6.239,8.169-8.478,11.292,1,1.242,2.159,2.683,3.479,4.245s2.8,3.244,4.439,5.006c1.12-1,2.4-2.243,3.839-3.684s3.04-3.124,4.8-5.006a48.643,48.643,0,0,1-3-4.725C673.305,232.781,672.386,231.54,671.586,230.378Zm28.915-35.8a9.81,9.81,0,0,0-4.56,1.522q-4.319,3-18.076,19.982a12.344,12.344,0,0,0-1.32,1.682c1.4,1.762,2.8,3.644,4.239,5.647,1.44,2.042,2.92,4.084,4.439,6.247,3.24-4.045,6.039-7.569,8.279-10.572,2.279-3,4.159-5.647,5.679-7.929,3.4-5.006,5.079-9.171,5.079-12.414C704.26,195.98,703.02,194.578,700.5,194.578ZM595,291.087c-2.76,1.642-7.159,2.443-13.2,2.443a92.929,92.929,0,0,1-27.675-4.325,70.546,70.546,0,0,1-15.238,9.21c-6.278,2.643-11.638,3.965-16,3.965a31.87,31.87,0,0,1-10.918-1.963,19.412,19.412,0,0,1-7.439-5.085,25.848,25.848,0,0,1-4.679-7.929,59.914,59.914,0,0,1-2.919-10.652c-0.64-3.244-1.2-9.651-1.68-19.142-0.52-9.451-1-22.185-1.52-38.123-0.52-17.339-.959-31.315-1.4-41.847-0.44-10.572-.84-17.78-1.24-21.664a171.165,171.165,0,0,0-7.319-35.8c0-2.883,1.24-7.368,3.759-13.375q0.72-2.283,1.32-2.282c0.48,0,1,.64,1.48,1.882a64.167,64.167,0,0,1,5.2,15.457,215.567,215.567,0,0,1,3.639,23.387q0.96,8.469,1.68,25.348,0.78,16.82,1.52,42.288c0.24,8.529.48,15.978,0.68,22.345,0.16,6.327.4,11.693,0.64,16.1,0.12,3.884.36,7.809,0.64,11.693a35.744,35.744,0,0,0,2.359,10.452A18.117,18.117,0,0,0,512.337,281c2.52,1.963,6.039,2.924,10.558,2.924,6.239,0,11.4-.961,15.4-2.843a28.587,28.587,0,0,1-3.56-13.736,52.9,52.9,0,0,1,5.639-24.307,49.189,49.189,0,0,1,10.2-13.776c-0.519-3.123-.2-7.528.92-13.175,0.4-1.882.84-2.843,1.32-2.843a10.353,10.353,0,0,1,3.4,1.522l17.117,8.85c2.16,1,3.2,1.962,3.2,2.8,0,1.4-1.44,1.962-4.319,1.722-0.76,0-1.48-.04-2.24-0.08a22.047,22.047,0,0,1-2.28-.321c2.88,2.643,5.679,4.966,8.4,7.008a69.215,69.215,0,0,0,7.8,5.086c6.518,3.644,10.878,6.447,13,8.45A25.929,25.929,0,0,1,604.6,267.34c0,7.288-1.32,13.055-3.959,17.34C598.762,287.8,596.882,289.966,595,291.087Zm-32.4-46.012c-2.519-4.125-4.639-6.207-6.4-6.207-2.879,0-6.4,2.443-10.558,7.368-4.119,4.766-6.2,9.091-6.2,12.975,0,3.284,2,6.167,6.039,8.69a25.224,25.224,0,0,0,10.159,3.764q10.917-6.428,10.918-14.336Q566.568,251.683,562.608,245.075Zm34.274,22.265c-1.519-1.882-5.039-4.445-10.558-7.729-6.4-3.644-10.838-6.727-13.358-9.25q0,10.392-5.279,23.947a78,78,0,0,0,19.757,2.843q11.879,0,11.878-3.964C599.322,271.705,598.522,269.743,596.882,267.34Zm-35.394-72.962c-0.639,0-.759-0.921-0.4-2.843a27.657,27.657,0,0,0,.6-6.408q0-12.793-14.517-25.628a1.451,1.451,0,0,1-.16-2.043l2.8-4.925c0.119-.361.519-0.361,1.119,0,9.439,7.168,14.118,16.779,14.118,28.832a29.743,29.743,0,0,1-2.04,10.772C562.368,193.617,561.848,194.378,561.488,194.378Zm-79.105,7.945c-1.361,2.123-2.362,3.2-3,3.2-0.4,0-1.081-1.082-2.082-3.2-1.642-3.885-4.084-5.847-7.368-5.847q-7.868,0-21.461,14.5a97.841,97.841,0,0,0-11.292,14.9c-3.163,5.047-4.725,8.411-4.725,10.173q0,7.39,27.308,13.218c10.33,2.243,17.217,4.646,20.741,7.17,3.4,2.483,5.085,6.648,5.085,12.416q0,13.758-10.731,23.592-17.538,15.8-43.364,27.877-28.228,12.8-47.648,12.817c-14.575,0-25.506-4.686-32.793-14.139q-9.069-11.836-9.049-31.081,0-30.7,14.694-53.352c2-3.124,3.4-4.686,4.165-4.686a1.039,1.039,0,0,1,.36.721c0,1.162-.641,2.924-1.882,5.287q-11.292,24.333-11.291,40.9c0,9.572,2.562,17.783,7.727,24.713q9.971,13.4,30.712,13.377,16.577,0,39.76-9.612a240.341,240.341,0,0,0,35.6-18.1c10.331-6.409,15.456-10.374,15.456-11.856,0-1.883-2.923-3.6-8.849-5.087q-4.685-1.142-9.25-2.283c-3-.761-6.086-1.442-9.209-2.083a85.58,85.58,0,0,1-10.01-2.8A40.712,40.712,0,0,1,433.213,260c-5.165-3.244-7.728-7.69-7.728-13.378q0-16.761,10.931-35.046a112.551,112.551,0,0,1,9.33-13.218,91.8,91.8,0,0,1,10.45-10.734q10.932-9.613,17.9-9.613a9.1,9.1,0,0,1,7.647,4.045,16.345,16.345,0,0,1,2.923,9.693Q484.665,198.358,482.383,202.323ZM325.169,264.786q5.1,12.253,5.079,21.5a44.514,44.514,0,0,1-1.68,11.093c-1.52,5.406-3.4,9.29-5.639,11.693a110.264,110.264,0,0,1-17.6,15.658A284.749,284.749,0,0,1,278.5,341.873q-26.935,15.678-31.8,15.658-0.959,0-26.555,6.207c-9.158,2.122-16.557,3.884-22.2,5.206-5.639,1.281-9.6,2.162-11.878,2.522a85.143,85.143,0,0,1-9,1.122c-0.52,0-.76-0.08-0.76-0.2q0-.72,9.958-5.286c1.28-.6,5.359-2.4,12.238-5.366q10.379-4.445,29.555-12.534,13.557-5.646,24.475-10.812,10.918-5.226,19.917-10.091c8.918-4.766,16.757-9.291,23.436-13.5q10.078-6.308,17.037-11.573c7.039-5.527,10.558-9.411,10.558-11.694,0-.6-1.84-4.885-5.479-12.814a227.2,227.2,0,0,1-8.439-21.1,21.968,21.968,0,0,0-2.559-6.327,23.134,23.134,0,0,1-1.8-3.083c-0.24-.881-0.12-3.2.4-6.968,0.6-3.925,1.12-6.648,1.48-8.21,0.4-1.561.84-2.362,1.32-2.362a2.655,2.655,0,0,1,1.319,1.161,184.914,184.914,0,0,0,13.558,14.7c2.12,2.122,3.2,3.444,3.2,3.924,0,0.4-.36.561-1.119,0.561a38.322,38.322,0,0,1-6.8-1.322c1.16,2.523,2.279,5.046,3.4,7.569S324.169,262.263,325.169,264.786Zm-42.63-94.608a57.031,57.031,0,0,1-4.239,4.886,32.142,32.142,0,0,1-3.639,3.4c-1.76,1.4-7.6,3.4-17.517,6.046l-2.84.361c0.28-.241.96-0.761,2.08-1.522q1.68-1.682,10.558-6.007c0.24-.12.88-0.52,1.96-1.161,1.079-.6,2.2-1.281,3.4-1.962a36.9,36.9,0,0,0,3.2-2.083c0.92-.68,1.4-1.2,1.4-1.6q0-2.643-14.877-2.643H260.7a15.561,15.561,0,0,0-1.76.12c-0.719.04-1.479,0.08-2.359,0.08-2,.12-3,0.08-3.04-0.2,0.04-.121.28-0.681,0.76-1.682l3.6-4.726a7.692,7.692,0,0,1,5.639-3.2,43.643,43.643,0,0,1,6.958-.361c11.278,0,16.957,1.322,16.957,3.965a7.508,7.508,0,0,1-1.439,3.4A52.447,52.447,0,0,1,282.539,170.178Zm-78.524,161.3a2.845,2.845,0,0,1,1.72-.4c0.24,0.281.16,0.841-.2,1.722a15.5,15.5,0,0,1-2.64,4.685c-8.038,2.924-16.717,6.207-26.075,9.932q-13.978,5.526-30.195,12.133c0.36-1.241.84-2.563,1.4-3.964q0.84-2.043,1.8-4.325Q175.2,342.01,204.015,331.478ZM238.839,87.089c-1.559,1.882-3.2,3.764-4.959,5.646-2.519,3.124-4.639,5.927-6.4,8.37a62.525,62.525,0,0,0-4.159,6.527,24.5,24.5,0,0,1-2.239,3.764c-0.4,0-.2-1.721.559-5.085,0.36-1.642,1.8-4.926,4.32-9.811a59.5,59.5,0,0,1,5.079-8.49q7.318-8.47,11.758-13.856a63.1,63.1,0,0,0,5.919-8.009,2.077,2.077,0,0,0,.2-1.121c0-2.122-2.76-3.2-8.279-3.2q-12.957,0-62.109,22.425-49.131,22.585-67.188,37.322-1.14.72,0.36,1.682l17.517,8.089c3.759,1.762,5.639,3.284,5.639,4.525,0,1.121-1.56,1.722-4.68,1.722-0.759,0-1.6-.04-2.559-0.12-0.92-.04-1.96-0.16-3.12-0.28,3.92,5.045,12.358,11.372,25.436,19.021q23.875,14.176,31.035,19.782,15.237,12.435,15.237,24.708c0,9.291-1.44,15.778-4.319,19.382a44.94,44.94,0,0,1-7.778,7.766c9.482,2.886,15.784,5.145,18.856,6.77,5.159,2.924,7.718,6.808,7.718,11.693q0,9.972-12.238,25.069-13.137,16.578-42.512,27.15-7.718,2.766-15.585,4.8c1.625,6.186,6.28,9.292,14.013,9.292q20.336,0,44.432-16.379,18.417-12.613,28.955-26.59a47.307,47.307,0,0,0,3.2-4.525,11.015,11.015,0,0,0,1.16-5.646q0-8.289-4.919-27.311a177.176,177.176,0,0,0-6.119-18.3c-2.8-7.408-12.559-16.058-17.2-25.989-0.24-.641,0-3.083.76-7.368a51.152,51.152,0,0,1,1.72-9.05c0.479-2.123,1.279-2.483,2.439-1.122,10.918,14.337,24.877,34,29.876,58.987q1.74,8.469,3.759,20.062,2.1,11.594,4.719,26.67c1.52,8.69,4.32,14.337,8.479,16.98,2,1.241,5.319,1.882,9.958,1.882,0.014,0.011.026,0.025,0.04,0.036v-0.036c6.919,0,11.438-2.4,13.558-7.168,0-2.523-2.56-7.849-7.719-16.018a3.486,3.486,0,0,1-.56-2.083,35.222,35.222,0,0,1,3.2-13.935c0.76-1.242,1.559-1.242,2.439,0,3.16,4.645,5.159,8.369,6.039,11.132,1.64,4,2.44,9.17,2.44,15.458,0,9.05-1.36,15.9-4.159,20.543q-6,10.512-15.238,10.532v-0.036c-0.014.01-.026,0.025-0.04,0.036q-9.959,0-15.237-3.965-8.1-6.006-10.518-21.464-0.6-2.823-1.44-8.289c-0.56-3.645-1.28-8.25-2.16-13.776-1.479,8.93-4.519,16.1-9.038,21.5a126.1,126.1,0,0,1-14.957,15.738,135.308,135.308,0,0,1-17.8,13.255Q172.058,330.5,154,330.519c-6.679,0-11.558-2.683-14.678-8.089-2.759-4.285-4.159-9.731-4.159-16.419,0-.477.03-0.955,0.038-1.433a179.668,179.668,0,0,1-40.059,4.481q-34.614,0-55.71-11.853-10.558-5.888-26.355-23.387C9.68,270.055,8,267.813,8,267.052c0-.12.12-0.2,0.36-0.2,0.88,0,3.519,1.241,7.919,3.764q35.214,20,83.585,19.982a193.135,193.135,0,0,0,37.22-3.469,112.458,112.458,0,0,1,6.16-20.282c1.159-2.923,2.039-4.365,2.639-4.365,0.28,0,.4.321,0.4,0.961a19.207,19.207,0,0,1-.96,4.125,189.964,189.964,0,0,0-4.467,18.778,157.7,157.7,0,0,0,26.356-8.2q25.976-10.692,34.834-24.667-3.42-2.463-22.956-7.929-12.418-3.364-18.837-5.166c-4.239-1.2-6.6-1.842-6.959-2-2.4-.841-3.319-2.443-2.839-4.686,0.28-1,.6-2.282.96-3.884,0.36-1.562.88-3.4,1.519-5.526,0.014-.009.029-0.016,0.043-0.024l-0.043-.016q1.32-3.6,2.64-3.965c4.759-1.241,8.439-2.242,11-2.923,2.6-.681,4.119-1.081,4.6-1.2a70.783,70.783,0,0,0,10.358-4.365,49.646,49.646,0,0,0,8.479-5.447,3.139,3.139,0,0,0,1.32-2.282c0-1.362-1-2.883-3-4.525q-8.7-7.509-26.155-18.461c-6.919-4.365-12.638-8.089-17.237-11.093-4.559-3-7.919-5.366-10.078-6.967-9.919-7.289-17.757-14.977-23.516-22.986a1.388,1.388,0,0,0-.84-0.6,19.332,19.332,0,0,1-1.8-.921c-0.6-.36-1.2-0.721-1.679-1.041a1.254,1.254,0,0,1-.76-1.041q0-24.689,6.2-30.154,15.477-14.116,67.028-37.282Q231.2,45.622,248.158,45.6c3.279,0,5.519.681,6.8,2,1.239,1.322,1.879,3.6,1.879,6.848q0,11.173-13.2,27.151C242.039,83.365,240.439,85.207,238.839,87.089Zm-3-50.817c-2.2,2.843-4.559,5.686-7.039,8.57a5.032,5.032,0,0,0-1.24,1.8,1.3,1.3,0,0,1-.48.841,1.091,1.091,0,0,1-.2-0.961,8.014,8.014,0,0,1,.76-2.643c0.4-.6,1-1.562,1.8-2.8s1.6-2.523,2.36-3.764c0.759-1.282,1.359-2.4,1.879-3.4,0.48-1,.64-1.682.36-2.082-0.76-.721-2.439-1.121-5.079-1.121q-8.279,0-40.633,15.1Q156.714,60.279,143.7,70.47V61.06q10.2-9.431,44.432-25.068,34.614-15.858,45.752-15.858,3.36,0,4.679,1.322c0.88,0.881,1.2,2.4.96,4.525A18.1,18.1,0,0,1,235.84,36.272ZM273.824,357.26q25.377-9.25,54.191-19.782a2.845,2.845,0,0,1,1.72-.4c0.24,0.281.16,0.841-.2,1.722a15.5,15.5,0,0,1-2.64,4.685c-8.038,2.924-16.717,6.207-26.075,9.932q-13.978,5.526-30.195,12.133c0.36-1.241.84-2.563,1.4-3.964Q272.865,359.542,273.824,357.26Zm93.082,2.447q25.406-9.253,54.255-19.787a2.854,2.854,0,0,1,1.722-.4c0.24,0.28.16,0.841-.2,1.722a15.54,15.54,0,0,1-2.642,4.686c-8.048,2.924-16.737,6.208-26.107,9.933Q379.939,361.389,363.7,368c0.36-1.242.84-2.564,1.4-3.966Q365.946,361.991,366.906,359.707Zm348.832,7.81q25.375-9.25,54.19-19.783a2.849,2.849,0,0,1,1.72-.4c0.24,0.28.16,0.841-.2,1.722a15.555,15.555,0,0,1-2.639,4.685c-8.039,2.923-16.717,6.207-26.076,9.931q-13.977,5.526-30.194,12.134c0.359-1.241.839-2.563,1.4-3.965Q714.778,369.8,715.738,367.517Zm53.83-230.964c0-5.887-.919-10.732-2.8-14.5,0-2,1.68-7.088,5.079-15.257a4.736,4.736,0,0,1,1.12-1.522c0.24,0,.68.521,1.32,1.522,0.48,1,1.319,2.964,2.439,5.847s2.56,6.727,4.319,11.493c1.88,4.885,3.4,8.85,4.52,11.853a51.63,51.63,0,0,1,2.079,6.207,12.457,12.457,0,0,1,.76,3.965c0,2.643-2.639,1-7.878-4.886-0.64-1-.96-0.641-0.96,1.121q0,0.962,3.919,56.544c1.4,18.7,2.44,33.278,3.119,43.609,0.68,10.372,1.04,16.739,1.04,19.142q0,21.864-6.4,37.682-0.78,1.5-1.319,2.763c-0.4.8-.72,1.442-0.96,1.963-0.88,1.361-1.4,1.641-1.52.76a28.536,28.536,0,0,1,.2-6.967c0.24-2.523.48-5.206,0.68-8.009,0.2-2.844.28-5.887,0.28-9.171q0-8.829-4.519-72.522Q769.588,144.281,769.568,136.553Z"/>
</svg>
