<svg xmlns="http://www.w3.org/2000/svg" width="109" height="142" viewBox="0 0 109 142">
  <defs>
    <style>
      .cls-1 {
        fill: #fff;
      }

      .cls-1, .cls-2 {
        fill-rule: evenodd;
      }

      .cls-2 {
        fill: #15dbf2;
      }
    </style>
  </defs>
  <path id="_1" data-name="1" class="cls-1" d="M108.7,2.579a9.168,9.168,0,0,1-1.074,1.509q-0.6.727-1.018,1.18a7.292,7.292,0,0,0-.624.759c-0.523.714-.854,1.034-1,0.942a4.531,4.531,0,0,1,.652-1.7,11.533,11.533,0,0,1,1.12-1.528A0.2,0.2,0,0,0,106.8,3.7c0.028-.037.083-0.082,0.156-0.156s0.184-.183.34-0.338,0.367-.384.624-0.668A0.511,0.511,0,0,0,107.6,2.2a1.269,1.269,0,0,0-.413-0.082,1.506,1.506,0,0,0-.34.082c-0.174.055-.33,0.119-0.477,0.174a28.917,28.917,0,0,1-5.249,1.994A19.346,19.346,0,0,1,96,5.077a12.623,12.623,0,0,1-2.441-.238,8.65,8.65,0,0,1-2.23-.75,2.607,2.607,0,0,0,.064.494,1.312,1.312,0,0,1-.018.622,7.244,7.244,0,0,1-.257.86,3.229,3.229,0,0,1-.523.906c-0.138,0-.211-0.284-0.211-0.86a5.718,5.718,0,0,0-.129-1.272,4.683,4.683,0,0,0-.367-0.988,9.684,9.684,0,0,0-.56-0.906c-0.22-.3-0.459-0.622-0.716-0.97,0.147-1.006.413-1.509,0.817-1.509a1.485,1.485,0,0,1,.367.3,1.605,1.605,0,0,0,.413.348,9.069,9.069,0,0,0,2.918,1.445,12.027,12.027,0,0,0,3.341.448,17.675,17.675,0,0,0,4.5-.576A24.678,24.678,0,0,0,105.375.777,6.931,6.931,0,0,1,107.66,0,1.164,1.164,0,0,1,109,1.289,3.2,3.2,0,0,1,108.7,2.579ZM90.031,23.592a0.33,0.33,0,0,1-.037-0.466L90.636,22c0.028-.082.119-0.082,0.257,0a7.829,7.829,0,0,1,3.24,6.587,6.77,6.77,0,0,1-.468,2.461,0.83,0.83,0,0,1-.349.512c-0.147,0-.174-0.21-0.092-0.65a6.274,6.274,0,0,0,.138-1.464Q93.362,26.524,90.031,23.592Zm-10.2,14.472c0.239,0.348.468,0.686,0.7,1.034s0.459,0.7.688,1.079q5.628,8.682,9.642,8.69c1.584,0,2.62-.55,3.106-1.637,0-.576-0.587-1.793-1.771-3.659a0.793,0.793,0,0,1-.128-0.476,8.018,8.018,0,0,1,.734-3.184c0.174-.284.358-0.284,0.56,0a10.781,10.781,0,0,1,1.386,2.543,9.4,9.4,0,0,1,.56,3.531,9.205,9.205,0,0,1-.955,4.693,4.031,4.031,0,0,1-3.487,2.405h-0.01q-2.68,0-5.3-2.836c-0.78-.832-1.8-2.086-3.074-3.769s-2.772-3.8-4.5-6.349c-0.284.311-.569,0.613-0.844,0.878s-0.569.567-.881,0.887c1.725,2.635,2.588,4.794,2.588,6.459a7.733,7.733,0,0,1-.385,2.1,5.575,5.575,0,0,1-.78,1.857,9.375,9.375,0,0,1-2.854,2.534,7.284,7.284,0,0,1-3.754,1.336q-2.464,0-2.459-3.659,0-4.913,4.231-9.6C72.383,42.438,72,42.026,71.7,41.678s-0.56-.613-0.762-0.814a20.138,20.138,0,0,1-7.81,5.983,4.6,4.6,0,0,1-1.037.384c-0.037,0-.046-0.009-0.046-0.037a4.668,4.668,0,0,1,1.083-1.034,45.471,45.471,0,0,0,3.451-3.193q1.638-1.674,3.24-3.485a10.687,10.687,0,0,1-2.505-6.541q-0.041-5.6,2.2-5.6,2.079,0,6.094,4.912c1.468-1.839,2.762-3.385,3.891-4.656q2.629-3.005,4.148-3.01,1.294,0,1.294,2.5a11.283,11.283,0,0,1-1.34,5.635A38.229,38.229,0,0,1,79.835,38.065ZM69.822,50.47a1.153,1.153,0,0,0-.037.339c0,0.8.615,1.207,1.854,1.207a6.235,6.235,0,0,0,2.12-.6,10.435,10.435,0,0,0,3.4-2.241,0.921,0.921,0,0,0,.477-0.814,14.578,14.578,0,0,0-3.368-4.172Q70.694,47.794,69.822,50.47Zm0.046-19.385c-0.486,0-.734.348-0.734,1.034q0,2.113,2.68,5.041c0.376-.485.743-0.961,1.1-1.418s0.707-.924,1.055-1.381C72.19,32.182,70.822,31.085,69.868,31.085Zm5.763,5.553c-0.193-.256-0.367-0.512-0.541-0.769-0.78,1.006-1.432,1.866-1.946,2.58,0.229,0.284.5,0.613,0.8,0.97s0.642,0.741,1.019,1.143c0.257-.229.551-0.512,0.881-0.842s0.7-.714,1.1-1.144a11.091,11.091,0,0,1-.688-1.079C76.026,37.187,75.815,36.9,75.631,36.638Zm6.635-8.179a2.257,2.257,0,0,0-1.046.348,31.319,31.319,0,0,0-4.148,4.565,2.812,2.812,0,0,0-.3.384c0.321,0.4.642,0.833,0.973,1.29s0.67,0.933,1.019,1.427c0.743-.924,1.386-1.729,1.9-2.415s0.955-1.29,1.3-1.811a5.477,5.477,0,0,0,1.165-2.836A0.8,0.8,0,0,0,82.267,28.459ZM58.057,50.506a6.188,6.188,0,0,1-3.029.558,21.41,21.41,0,0,1-6.351-.988,16.2,16.2,0,0,1-3.5,2.1,9.877,9.877,0,0,1-3.671.906,7.341,7.341,0,0,1-2.505-.448A4.455,4.455,0,0,1,37.3,51.476a5.9,5.9,0,0,1-1.074-1.811,13.64,13.64,0,0,1-.67-2.433,37.39,37.39,0,0,1-.385-4.373C35.05,40.7,34.94,37.79,34.82,34.149,34.7,30.188,34.6,27,34.5,24.59s-0.193-4.062-.285-4.949a38.942,38.942,0,0,0-1.679-8.178A8.975,8.975,0,0,1,33.4,8.407a0.69,0.69,0,0,1,.3-0.521,0.556,0.556,0,0,1,.34.43,14.614,14.614,0,0,1,1.193,3.531,49.094,49.094,0,0,1,.835,5.343q0.22,1.935.386,5.791T36.8,32.64c0.055,1.949.11,3.65,0.156,5.1s0.092,2.671.147,3.678c0.027,0.887.083,1.784,0.147,2.671a8.144,8.144,0,0,0,.541,2.388,4.139,4.139,0,0,0,1.294,1.72,3.87,3.87,0,0,0,2.423.668,8.373,8.373,0,0,0,3.533-.649,6.508,6.508,0,0,1-.817-3.138,12.039,12.039,0,0,1,1.294-5.553,11.237,11.237,0,0,1,2.34-3.147,8.919,8.919,0,0,1,.211-3.01,0.776,0.776,0,0,1,.3-0.65,2.381,2.381,0,0,1,.78.348l3.928,2.022a1.028,1.028,0,0,1,.734.64c0,0.32-.33.448-0.991,0.393-0.174,0-.34-0.009-0.514-0.018a5.139,5.139,0,0,1-.523-0.073c0.661,0.6,1.3,1.134,1.927,1.6a15.953,15.953,0,0,0,1.79,1.162,17.171,17.171,0,0,1,2.983,1.93,5.91,5.91,0,0,1,1.771,4.355,7.472,7.472,0,0,1-.909,3.961A4.186,4.186,0,0,1,58.057,50.506ZM50.624,39.995c-0.578-.942-1.065-1.418-1.468-1.418-0.661,0-1.468.558-2.423,1.683a4.772,4.772,0,0,0-1.422,2.964A2.406,2.406,0,0,0,46.7,45.209a5.8,5.8,0,0,0,2.331.86q2.505-1.468,2.505-3.275A5.5,5.5,0,0,0,50.624,39.995Zm7.865,5.086a10.117,10.117,0,0,0-2.423-1.766A15.266,15.266,0,0,1,53,41.2a15.321,15.321,0,0,1-1.211,5.471,17.973,17.973,0,0,0,4.534.65q2.726,0,2.726-.906A2.6,2.6,0,0,0,58.489,45.081ZM50.367,28.414c-0.147,0-.174-0.21-0.092-0.649a6.28,6.28,0,0,0,.138-1.464q0-2.923-3.331-5.855a0.33,0.33,0,0,1-.037-0.467l0.642-1.125c0.027-.082.119-0.082,0.257,0a7.829,7.829,0,0,1,3.24,6.587,6.769,6.769,0,0,1-.468,2.461A0.83,0.83,0,0,1,50.367,28.414ZM32.214,30.229a1.447,1.447,0,0,1-.689.732,1.45,1.45,0,0,1-.478-0.732,1.828,1.828,0,0,0-1.691-1.336q-1.805,0-4.925,3.312a22.385,22.385,0,0,0-2.591,3.4,5.977,5.977,0,0,0-1.084,2.324q0,1.688,6.266,3.02a14.262,14.262,0,0,1,4.759,1.638,3.275,3.275,0,0,1,1.167,2.837,7.039,7.039,0,0,1-2.462,5.389,40.184,40.184,0,0,1-9.951,6.368Q14.058,60.108,9.6,60.113c-3.345,0-5.853-1.07-7.525-3.23A11.33,11.33,0,0,1,0,49.782,21.8,21.8,0,0,1,3.372,37.594a2.306,2.306,0,0,1,.956-1.071,0.237,0.237,0,0,1,.083.165A3.021,3.021,0,0,1,3.979,37.9q-2.591,5.559-2.591,9.342a9.137,9.137,0,0,0,1.773,5.645q2.288,3.061,7.047,3.056a24.685,24.685,0,0,0,9.124-2.2A55.215,55.215,0,0,0,27.5,49.608c2.371-1.464,3.547-2.37,3.547-2.708,0-.43-0.671-0.824-2.031-1.162q-1.075-.261-2.122-0.522c-0.689-.174-1.4-0.329-2.113-0.476a19.734,19.734,0,0,1-2.3-.64,9.376,9.376,0,0,1-1.553-.7,3.431,3.431,0,0,1-1.773-3.056,15.587,15.587,0,0,1,2.508-8.006,25.714,25.714,0,0,1,2.141-3.02,21,21,0,0,1,2.4-2.452q2.508-2.2,4.107-2.2a2.092,2.092,0,0,1,1.755.924,3.722,3.722,0,0,1,.671,2.214A4.812,4.812,0,0,1,32.214,30.229ZM5.715,66.182q5.83-2.114,12.45-4.52a0.657,0.657,0,0,1,.4-0.092,0.423,0.423,0,0,1-.046.394,3.544,3.544,0,0,1-.606,1.07c-1.847.668-3.841,1.418-5.991,2.269S7.461,67.07,4.98,68.076c0.083-.284.193-0.586,0.322-0.906S5.568,66.53,5.715,66.182ZM68.145,63.9q-1.9,0-9.324,3.449a55.638,55.638,0,0,0-10.242,5.635v-2.15q2.34-2.154,10.2-5.727,7.943-3.623,10.5-3.623a1.505,1.505,0,0,1,1.074.3,1.231,1.231,0,0,1,.22,1.034,4.125,4.125,0,0,1-.844,2.351c-0.5.65-1.046,1.3-1.615,1.958a1.15,1.15,0,0,0-.285.412,0.3,0.3,0,0,1-.11.192,0.249,0.249,0,0,1-.046-0.22,1.825,1.825,0,0,1,.174-0.6c0.092-.137.229-0.357,0.413-0.64s0.367-.576.541-0.86,0.312-.549.431-0.778a0.521,0.521,0,0,0,.083-0.476A1.816,1.816,0,0,0,68.145,63.9ZM17.523,117.844a6.679,6.679,0,0,1,1.817.86q8.081,4.569,19.181,4.565a44.553,44.553,0,0,0,8.541-.793,25.577,25.577,0,0,1,1.413-4.633,1.654,1.654,0,0,1,.606-1c0.064,0,.092.073,0.092,0.219a4.367,4.367,0,0,1-.22.942,42.968,42.968,0,0,0-1.022,4.29,36.353,36.353,0,0,0,6.045-1.874q5.961-2.442,7.994-5.635a24.888,24.888,0,0,0-5.268-1.811q-2.85-.768-4.322-1.18c-0.973-.275-1.514-0.421-1.6-0.458a0.852,0.852,0,0,1-.652-1.07c0.064-.229.138-0.521,0.22-0.887s0.2-.778.349-1.263l0.01,0-0.01,0A1.387,1.387,0,0,1,51.3,107.2c1.092-.283,1.937-0.512,2.524-0.667l1.055-.275a16.3,16.3,0,0,0,2.377-1,11.432,11.432,0,0,0,1.946-1.244,0.718,0.718,0,0,0,.3-0.522,1.5,1.5,0,0,0-.688-1.033,51.125,51.125,0,0,0-6-4.217c-1.588-1-2.9-1.848-3.955-2.534s-1.817-1.226-2.313-1.592a24.186,24.186,0,0,1-5.4-5.251,0.318,0.318,0,0,0-.193-0.137,4.417,4.417,0,0,1-.413-0.21c-0.138-.082-0.275-0.165-0.385-0.238a0.286,0.286,0,0,1-.174-0.238q0-5.64,1.422-6.888,3.552-3.225,15.381-8.517Q68.659,67.305,72.55,67.3a2.13,2.13,0,0,1,1.56.457,2.264,2.264,0,0,1,.431,1.564q0,2.552-3.029,6.2c-0.367.4-.734,0.823-1.1,1.253s-0.734.86-1.138,1.29c-0.578.713-1.065,1.354-1.468,1.912a14.247,14.247,0,0,0-.954,1.491,5.558,5.558,0,0,1-.514.86,1.931,1.931,0,0,1,.129-1.162,12.126,12.126,0,0,1,.991-2.241,13.589,13.589,0,0,1,1.165-1.939q1.679-1.935,2.7-3.165a14.417,14.417,0,0,0,1.358-1.83,0.473,0.473,0,0,0,.046-0.256c0-.485-0.633-0.732-1.9-0.732q-2.973,0-14.252,5.123Q45.3,81.288,41.154,84.654q-0.262.165,0.083,0.384l4.02,1.848c0.863,0.4,1.294.75,1.294,1.034,0,0.256-.358.393-1.074,0.393-0.174,0-.367-0.009-0.587-0.027s-0.45-.037-0.716-0.064c0.9,1.153,2.836,2.6,5.837,4.345a80.687,80.687,0,0,1,7.122,4.519q3.5,2.84,3.5,5.644c0,2.122-.33,3.6-0.991,4.428a10.288,10.288,0,0,1-1.785,1.774,29.5,29.5,0,0,1,4.327,1.547,2.994,2.994,0,0,1,1.771,2.671q0,2.277-2.808,5.726-3.015,3.788-9.756,6.2-1.771.632-3.577,1.095c0.372,1.414,1.441,2.124,3.216,2.124q4.667,0,10.2-3.742a28.046,28.046,0,0,0,6.644-6.074,10.731,10.731,0,0,0,.734-1.034,2.506,2.506,0,0,0,.266-1.29,28.672,28.672,0,0,0-1.129-6.239,40.366,40.366,0,0,0-1.4-4.18c-0.642-1.693-2.882-3.669-3.947-5.937a5.782,5.782,0,0,1,.174-1.683,11.636,11.636,0,0,1,.395-2.067c0.11-.485.294-0.567,0.56-0.256,2.505,3.275,5.709,7.766,6.856,13.475,0.266,1.29.551,2.818,0.863,4.583s0.679,3.8,1.083,6.093c0.349,1.985.991,3.275,1.946,3.879a4.556,4.556,0,0,0,2.285.43l0.009,0.008v-0.008c1.588,0,2.625-.549,3.111-1.638,0-.576-0.587-1.793-1.771-3.659a0.8,0.8,0,0,1-.129-0.476A8.016,8.016,0,0,1,78.5,115.3c0.174-.284.358-0.284,0.56,0a10.765,10.765,0,0,1,1.386,2.543,9.4,9.4,0,0,1,.56,3.531,9.206,9.206,0,0,1-.954,4.693,4.029,4.029,0,0,1-3.5,2.406v-0.008l-0.009.008a5.765,5.765,0,0,1-3.5-.906q-1.859-1.372-2.414-4.9-0.138-.645-0.33-1.894c-0.129-.832-0.294-1.884-0.5-3.147a10.058,10.058,0,0,1-2.074,4.913,28.876,28.876,0,0,1-3.432,3.595,31.025,31.025,0,0,1-4.084,3.028q-5.135,3.225-9.278,3.229a3.609,3.609,0,0,1-3.368-1.848,6.771,6.771,0,0,1-.954-3.75c0-.111.007-0.222,0.009-0.332a41.414,41.414,0,0,1-9.192,1.028q-7.943,0-12.784-2.708a26.713,26.713,0,0,1-6.048-5.342,5.078,5.078,0,0,1-1.165-1.547C17.44,117.862,17.468,117.844,17.523,117.844Zm32.462,19.282q5.823-2.112,12.435-4.519a0.652,0.652,0,0,1,.395-0.091,0.422,0.422,0,0,1-.046.393,3.525,3.525,0,0,1-.606,1.07c-1.845.668-3.836,1.418-5.984,2.269s-4.451,1.766-6.929,2.772c0.083-.284.193-0.585,0.321-0.906S49.838,137.474,49.985,137.126ZM75.732,95.238h-0.3a3.582,3.582,0,0,0-.4.027c-0.165.009-.34,0.018-0.541,0.018a1.08,1.08,0,0,1-.7-0.046c0.009-.027.064-0.156,0.174-0.384l0.826-1.079a1.768,1.768,0,0,1,1.294-.732,10.057,10.057,0,0,1,1.6-.082c2.588,0,3.891.3,3.891,0.906a1.709,1.709,0,0,1-.33.778,11.977,11.977,0,0,1-.8,1.116,13.055,13.055,0,0,1-.973,1.116,7.319,7.319,0,0,1-.835.778,15.865,15.865,0,0,1-4.02,1.381l-0.652.082c0.064-.055.22-0.174,0.477-0.348A12.156,12.156,0,0,1,76.86,97.4c0.055-.027.2-0.119,0.45-0.265s0.5-.293.78-0.448a8.507,8.507,0,0,0,.734-0.476,0.648,0.648,0,0,0,.321-0.366Q79.146,95.238,75.732,95.238ZM58.349,140.745c0.294-.137,1.23-0.549,2.808-1.226s3.845-1.628,6.782-2.863q3.111-1.29,5.617-2.47t4.57-2.305c2.047-1.089,3.845-2.123,5.378-3.083s2.845-1.839,3.91-2.644q2.423-1.893,2.423-2.671a25.676,25.676,0,0,0-1.257-2.928,51.655,51.655,0,0,1-1.936-4.821,5,5,0,0,0-.587-1.445,5.274,5.274,0,0,1-.413-0.7,5.639,5.639,0,0,1,.092-1.592c0.138-.9.257-1.519,0.34-1.876a0.626,0.626,0,0,1,.3-0.539,0.607,0.607,0,0,1,.3.265,42.07,42.07,0,0,0,3.111,3.357,2.777,2.777,0,0,1,.734.9c0,0.091-.083.128-0.257,0.128a8.857,8.857,0,0,1-1.56-.3c0.266,0.576.523,1.153,0.78,1.729s0.5,1.144.734,1.72a13.018,13.018,0,0,1,1.165,4.912A10.119,10.119,0,0,1,91,124.818a6.524,6.524,0,0,1-1.294,2.672,25.309,25.309,0,0,1-4.038,3.577,65.283,65.283,0,0,1-6.158,3.915q-6.181,3.582-7.3,3.577-0.22,0-6.094,1.418c-2.1.485-3.8,0.887-5.094,1.189s-2.2.494-2.726,0.576a19.663,19.663,0,0,1-2.065.257c-0.119,0-.174-0.019-0.174-0.046A9,9,0,0,1,58.349,140.745ZM78.44,138.5q5.823-2.114,12.435-4.519a0.657,0.657,0,0,1,.395-0.092,0.424,0.424,0,0,1-.046.394,3.539,3.539,0,0,1-.606,1.07c-1.845.668-3.836,1.418-5.984,2.269s-4.451,1.765-6.929,2.772c0.083-.284.193-0.586,0.321-0.906S78.293,138.845,78.44,138.5Zm6.91-69.543q0.193-.467.413-0.988,5.823-2.113,12.435-4.519a0.656,0.656,0,0,1,.395-0.092,0.423,0.423,0,0,1-.046.393,3.544,3.544,0,0,1-.606,1.07c-1.845.668-3.836,1.418-5.984,2.269s-4.451,1.766-6.929,2.772C85.111,69.576,85.222,69.274,85.35,68.954ZM98.116,15.2a7.4,7.4,0,0,0-.642-3.312,13.831,13.831,0,0,1,1.166-3.485A1.081,1.081,0,0,1,98.9,8.059a0.769,0.769,0,0,1,.3.348c0.11,0.229.3,0.677,0.56,1.336s0.588,1.537.992,2.625c0.431,1.116.78,2.022,1.037,2.708a11.72,11.72,0,0,1,.477,1.418,2.841,2.841,0,0,1,.174.906c0,0.6-.605.229-1.808-1.116-0.147-.229-0.22-0.146-0.22.256q0,0.219.9,12.917c0.322,4.272.56,7.6,0.716,9.962s0.239,3.824.239,4.373A22.747,22.747,0,0,1,100.8,52.4q-0.178.343-.3,0.631c-0.092.183-.166,0.329-0.221,0.448-0.2.311-.321,0.375-0.348,0.174a6.489,6.489,0,0,1,.046-1.592c0.056-.576.111-1.189,0.157-1.83s0.064-1.345.064-2.095q0-2.017-1.037-16.567Q98.12,16.969,98.116,15.2Z"/>
  <path id="_2" data-name="2" class="cls-2" d="M95.262,61.241c-0.11.174-.229,0.219-0.34,0.128-0.5-.338-1-0.7-1.514-1.052s-1.065-.723-1.643-1.1A16.341,16.341,0,0,1,90.6,61.46c-0.083.2-.2,0.256-0.349,0.165-0.514-.393-1.046-0.787-1.6-1.162s-1.11-.741-1.679-1.116c-0.064-.027-0.064-0.119,0-0.256l1.377-2.717a0.375,0.375,0,0,1,.257-0.256,7.447,7.447,0,0,1,1.56.906,11.16,11.16,0,0,1,1.725,1.336l1.083-2.2a0.378,0.378,0,0,1,.257-0.265,10.3,10.3,0,0,1,1.817,1.125,8.061,8.061,0,0,1,1.634,1.244A7.757,7.757,0,0,1,95.262,61.241Zm-7.417,40.933a7.869,7.869,0,0,1-1.422,2.928c-0.11.2-.229,0.265-0.349,0.174a27.666,27.666,0,0,0-3.276-2.242c-0.055-.027-0.055-0.11,0-0.256l1.377-2.753a0.368,0.368,0,0,1,.266-0.257,10.668,10.668,0,0,1,1.808,1.116A5.39,5.39,0,0,1,87.845,102.174Zm-9,6.838c-0.11.2-.229,0.266-0.349,0.174a27.78,27.78,0,0,0-3.276-2.241c-0.055-.028-0.055-0.11,0-0.256l1.377-2.754a0.367,0.367,0,0,1,.266-0.256,10.7,10.7,0,0,1,1.808,1.116,5.39,5.39,0,0,1,1.6,1.29A7.876,7.876,0,0,1,78.843,109.012Z"/>
</svg>
