<svg xmlns="http://www.w3.org/2000/svg" width="25" height="21" viewBox="0 0 25 21">
  <defs>
    <style>
      .cls-1 {
        fill: #d7820d;
        fill-rule: evenodd;
      }
    </style>
  </defs>
  <path id="film-strip-with-two-photograms.psd" class="cls-1" d="M24.387,0.6A2.037,2.037,0,0,0,22.915,0H2.084A2.038,2.038,0,0,0,.613.6,1.915,1.915,0,0,0,0,2.024V18.982a1.914,1.914,0,0,0,.612,1.426A2.038,2.038,0,0,0,2.084,21H22.916a2.037,2.037,0,0,0,1.471-.593A1.914,1.914,0,0,0,25,18.982V2.024A1.915,1.915,0,0,0,24.387.6ZM5,18.579a0.764,0.764,0,0,1-.247.568,0.812,0.812,0,0,1-.586.24H2.5a0.812,0.812,0,0,1-.586-0.24,0.765,0.765,0,0,1-.247-0.568V16.964A0.765,0.765,0,0,1,1.915,16.4a0.814,0.814,0,0,1,.586-0.24H4.167a0.814,0.814,0,0,1,.586.24A0.764,0.764,0,0,1,5,16.964v1.615Zm0-4.845a0.764,0.764,0,0,1-.247.568,0.814,0.814,0,0,1-.586.239H2.5A0.814,0.814,0,0,1,1.915,14.3a0.765,0.765,0,0,1-.247-0.568V12.118a0.765,0.765,0,0,1,.247-0.568,0.815,0.815,0,0,1,.586-0.24H4.167a0.815,0.815,0,0,1,.586.24A0.764,0.764,0,0,1,5,12.118v1.616ZM5,8.888a0.765,0.765,0,0,1-.247.568,0.814,0.814,0,0,1-.586.24H2.5a0.814,0.814,0,0,1-.586-0.24,0.766,0.766,0,0,1-.247-0.568V7.273A0.766,0.766,0,0,1,1.915,6.7,0.815,0.815,0,0,1,2.5,6.466H4.167a0.814,0.814,0,0,1,.586.239A0.766,0.766,0,0,1,5,7.273V8.888ZM5,4.043a0.763,0.763,0,0,1-.247.567,0.814,0.814,0,0,1-.586.24H2.5a0.814,0.814,0,0,1-.586-0.24,0.765,0.765,0,0,1-.247-0.567V2.428A0.764,0.764,0,0,1,1.915,1.86,0.814,0.814,0,0,1,2.5,1.62H4.167a0.814,0.814,0,0,1,.586.24A0.764,0.764,0,0,1,5,2.428V4.043ZM18.333,18.579a0.764,0.764,0,0,1-.247.568,0.812,0.812,0,0,1-.586.24H7.5a0.812,0.812,0,0,1-.586-0.24,0.765,0.765,0,0,1-.247-0.568v-6.46a0.766,0.766,0,0,1,.247-0.568A0.815,0.815,0,0,1,7.5,11.311h10a0.815,0.815,0,0,1,.586.239,0.766,0.766,0,0,1,.247.568v6.46h0Zm0-9.691a0.765,0.765,0,0,1-.247.568,0.814,0.814,0,0,1-.586.24H7.5a0.814,0.814,0,0,1-.586-0.24,0.766,0.766,0,0,1-.247-0.568V2.428A0.764,0.764,0,0,1,6.914,1.86,0.813,0.813,0,0,1,7.5,1.62h10a0.813,0.813,0,0,1,.586.24,0.764,0.764,0,0,1,.247.568v6.46h0Zm5,9.691a0.765,0.765,0,0,1-.247.568,0.813,0.813,0,0,1-.586.24H20.832a0.812,0.812,0,0,1-.586-0.24A0.764,0.764,0,0,1,20,18.579V16.964a0.764,0.764,0,0,1,.248-0.568,0.813,0.813,0,0,1,.586-0.24H22.5a0.815,0.815,0,0,1,.586.24,0.765,0.765,0,0,1,.247.568v1.615Zm0-4.845a0.765,0.765,0,0,1-.247.568,0.815,0.815,0,0,1-.586.239H20.832a0.814,0.814,0,0,1-.586-0.239A0.764,0.764,0,0,1,20,13.734V12.118a0.764,0.764,0,0,1,.248-0.568,0.814,0.814,0,0,1,.586-0.24H22.5a0.816,0.816,0,0,1,.586.24,0.765,0.765,0,0,1,.247.568v1.616Zm0-4.845a0.766,0.766,0,0,1-.247.568,0.815,0.815,0,0,1-.586.24H20.832a0.813,0.813,0,0,1-.586-0.24A0.765,0.765,0,0,1,20,8.888V7.273A0.765,0.765,0,0,1,20.247,6.7a0.814,0.814,0,0,1,.586-0.239H22.5a0.815,0.815,0,0,1,.586.239,0.766,0.766,0,0,1,.247.568V8.888Zm0-4.845a0.764,0.764,0,0,1-.247.567,0.815,0.815,0,0,1-.586.24H20.832a0.812,0.812,0,0,1-.586-0.24A0.764,0.764,0,0,1,20,4.043V2.428a0.763,0.763,0,0,1,.248-0.568,0.813,0.813,0,0,1,.586-0.24H22.5a0.815,0.815,0,0,1,.586.24,0.765,0.765,0,0,1,.247.568V4.043Z"/>
</svg>
