<svg xmlns="http://www.w3.org/2000/svg" width="240" height="58" viewBox="0 0 240 58">
  <defs>
    <style>
      .cls-1 {
        fill: #001467;
        fill-rule: evenodd;
      }
    </style>
  </defs>
  <path id="logo" class="cls-1" d="M222.764,45.646a1.254,1.254,0,0,1-.445-0.156,0.22,0.22,0,0,1-.073-0.058c-0.009-.011-0.008-0.02,0-0.026a0.165,0.165,0,0,1,.085-0.012,0.86,0.86,0,0,0,.512-0.146,0.679,0.679,0,0,0,.282-0.427,0.966,0.966,0,0,0-.021-0.521,1.306,1.306,0,0,0-.561-0.2l-0.084-.483a0.847,0.847,0,0,1,.741.412,1.733,1.733,0,0,1,.293.826,0.75,0.75,0,0,1-.282.738A0.616,0.616,0,0,1,222.764,45.646Zm2.654-5.018a1.465,1.465,0,0,1,.537.406c0.022,0.023.042,0.045,0.057,0.063l0.235,0.272q0.07,0.082-.144.291a1.626,1.626,0,0,1-.335.245,1.3,1.3,0,0,1-.3.13,0.564,0.564,0,0,1-.053.229,1.094,1.094,0,0,1-.221.276,1.458,1.458,0,0,1-.537.385,0.784,0.784,0,0,1-.235.366l-0.172.168a0.11,0.11,0,0,1-.081.028,0.089,0.089,0,0,1-.016-0.006l-0.208.164a0.288,0.288,0,0,1-.3.056,0.775,0.775,0,0,1-.253-0.2l-1.019-1.142,0.062-.405a0.206,0.206,0,0,1,.016-0.047c0.009-.007.024,0,0.045,0.028l0.952,1.133a1.347,1.347,0,0,0,.159.153,0.233,0.233,0,0,0,.191-0.076l0.07-.056,0.029,0.038,0.253-.246a0.8,0.8,0,0,0,.215-0.275,0.411,0.411,0,0,0-.07-0.1,0.545,0.545,0,0,0-.139-0.1l-0.021-.45a0.682,0.682,0,0,1,.167.13,1.188,1.188,0,0,1,.231.372,1.91,1.91,0,0,0,.362-0.3,1.5,1.5,0,0,0,.274-0.318,0.325,0.325,0,0,0-.073-0.125,0.329,0.329,0,0,0-.117-0.078l-0.014-.459a0.435,0.435,0,0,1,.138.1,1.029,1.029,0,0,1,.218.36,0.653,0.653,0,0,0,.364-0.2,0.329,0.329,0,0,0,.11-0.166,0.873,0.873,0,0,0-.35-0.2Zm6.936,6.476a24.852,24.852,0,0,1-2.464,2.587L229,50.449a30.176,30.176,0,0,1-3.926,2.768A28.508,28.508,0,0,1,211.98,57h-1.918a29.682,29.682,0,0,1-6.17-.882,24.179,24.179,0,0,1-4.885-1.8c-0.8-.409-1.481-0.773-2.223-1.176-0.672-.364-1.339-0.86-1.992-1.3a28.216,28.216,0,0,1-9.127-10.972,25.045,25.045,0,0,1-1.787-4.924A30.312,30.312,0,0,1,183,27.567,27.644,27.644,0,0,1,185.268,17.5a36.566,36.566,0,0,1,2.145-4.011A34.813,34.813,0,0,1,190,10.04a16.34,16.34,0,0,1,1.5-1.571,25.9,25.9,0,0,1,9.23-6.019,20.514,20.514,0,0,1,4.687-1.339V19.52c0,0.419-1.246,1.225-1.531,1.654a28.746,28.746,0,0,1,2.542,2.562l-3.772,3.748-3.692-3.775a16.848,16.848,0,0,1,2.516-2.425,16.172,16.172,0,0,1-1.614-1.791c-0.16-.581-0.027-9.209-0.027-10.225a25.03,25.03,0,0,0-4.233,3.119A17.457,17.457,0,0,0,193,15.376c-0.265.356-.472,0.712-0.7,1.057a22.683,22.683,0,0,0,.529,25.481l2.395,2.878a28.084,28.084,0,0,0,2.937,2.441,25.188,25.188,0,0,0,3.324,1.941c3.587,1.781,6.622,2.093,10.61,2.093a21.2,21.2,0,0,0,11.876-4.124l2.149-1.8c0.286-.288.459-0.343,0.715-0.6l1.275-1.472a27.616,27.616,0,0,0,3.09-4.822,22.946,22.946,0,0,0,.924-17.065,23.811,23.811,0,0,0-4.859-8.11,18.274,18.274,0,0,0-1.418-1.326,14.609,14.609,0,0,0-2.59-2.02c-0.388-.235-0.667-0.425-1.1-0.655,0,1.175.125,9.389-.008,10.134-0.111.624-1.161,1.227-1.523,1.772,0.6,0.907,2.072,1.867,2.515,2.535a46.175,46.175,0,0,1-3.827,3.748,18.9,18.9,0,0,0-1.834-1.9l-0.983-.883a6.265,6.265,0,0,1-.875-0.938l2.488-2.562c-0.249-.377-1.531-1.408-1.531-1.764V1.111a20.786,20.786,0,0,1,4.766,1.369,23.382,23.382,0,0,1,5.937,3.276c0.593,0.451,1.162.851,1.733,1.34a27.491,27.491,0,0,1,5.656,6.535l1.632,2.985c2.243,4.878,2.7,7.78,2.7,13.486A28.131,28.131,0,0,1,232.354,47.1ZM201.268,23.819c0.464,0.313.978,0.913,1.422,1.213a17.651,17.651,0,0,0,1.448-1.239l-1.475-1.433Zm16.709-.085,1.363,1.435,1.4-1.46a8.693,8.693,0,0,0-1.312-1.323A12.411,12.411,0,0,0,217.977,23.733Zm17.554-4.686a26.556,26.556,0,0,0-10.7-12.912l-2.633-1.424a21.318,21.318,0,0,0-3.974-1.506V16.764c0,3.506.049,1.735,1.094,3.307,1.387-.936,1.094-1.431,1.093-2.646V6.513a13.857,13.857,0,0,1,3.069,1.537,23.951,23.951,0,0,1,5.052,4.168,21.823,21.823,0,0,1,2.082,2.531,22.281,22.281,0,0,1,2.481,4.444c0.227,0.518.471,1.134,0.646,1.664a24.045,24.045,0,1,1-37.9-10.892c1.239-1.056,4.361-3.122,5.763-3.451v7.275c0,0.667-.135,4.977.133,5.377a5.673,5.673,0,0,1,.852.906,9.781,9.781,0,0,1,1.2-.992V3.205a25.434,25.434,0,0,0-5.843,2.488c-0.366.218-.542,0.292-0.9,0.531-0.3.2-.5,0.336-0.786,0.53a20.515,20.515,0,0,0-3.112,2.486,32.5,32.5,0,0,0-2.661,2.829,26.834,26.834,0,0,0-5.842,16.269,26.285,26.285,0,0,0,3.5,13.669,26.9,26.9,0,0,0,9.805,9.849,21.363,21.363,0,0,0,2.162,1.128,27.568,27.568,0,0,0,4.9,1.674,25.906,25.906,0,0,0,21.112-4.132,26.355,26.355,0,0,0,5.081-4.689,26.851,26.851,0,0,0,5.471-11.021A26.523,26.523,0,0,0,235.531,19.047ZM213.408,1h1.64v19.29h-1.64V1Zm-1.557,18.98,1.764,1.616-2.884,2.927a13.327,13.327,0,0,0-1.37-1.257v1.1a2.591,2.591,0,0,1-1.109-1.544,1.691,1.691,0,0,1,.891-1.653l1.64,1.323,0.766-.882-1.422-1.323V1h1.75l-0.008,18.306C211.869,19.663,211.851,19.981,211.851,19.981Zm-3.474.31h-1.422V1h1.75v18.96A0.269,0.269,0,0,1,208.377,20.291Zm9.314,24.867h0.431l-0.015.388-0.429-.01Zm1.286,2.368a1.729,1.729,0,0,1-.467.307,0.531,0.531,0,0,1-.545-0.073,1.033,1.033,0,0,1-.325-0.477,1.739,1.739,0,0,1-.033-0.973,0.062,0.062,0,0,1,.035-0.047,0.016,0.016,0,0,1,.024.013,0.11,0.11,0,0,1,0,.052,1.753,1.753,0,0,0,.057.749,0.522,0.522,0,0,0,.246.3,0.448,0.448,0,0,0,.378.006,1.7,1.7,0,0,0,.788-0.607,1.3,1.3,0,0,0-.509-0.673l0.081-.451c0-.027.017-0.033,0.037-0.02a1.338,1.338,0,0,1,.5.7,1.221,1.221,0,0,1,.089.78A1.147,1.147,0,0,1,218.977,47.527Zm2.444-2.13a1.02,1.02,0,0,1-.447.158,0.677,0.677,0,0,1-.206-0.041,0.488,0.488,0,0,1-.037.233,0.579,0.579,0,0,1-.195.149l-0.2.11a0.112,0.112,0,0,1-.016,0l-0.248.117a0.29,0.29,0,0,1-.309-0.013,0.8,0.8,0,0,1-.2-0.257l-0.739-1.344,0.151-.38A0.216,0.216,0,0,1,219,44.091c0.01-.006.023,0.007,0.038,0.037l0.675,1.319a1.3,1.3,0,0,0,.122.185,0.231,0.231,0,0,0,.2-0.03l0.08-.038,0,0,0.4-.224a0.222,0.222,0,0,0,.1-0.2c-0.017-.252-0.025-0.4-0.022-0.431a0.505,0.505,0,0,1,.216-0.445,0.228,0.228,0,0,1,.236.046c0.022,0.015.095,0.074,0.218,0.178a1.771,1.771,0,0,1,.295.283,0.45,0.45,0,0,1,.044.485A0.549,0.549,0,0,1,221.421,45.4Zm-0.5-.658a0.238,0.238,0,0,0-.111.126,0.782,0.782,0,0,0-.031.2,0.705,0.705,0,0,0,.554-0.125Q221.084,44.644,220.916,44.739Zm-1.3-11.528c-0.423-.354-0.857-0.852-1.264-1.262,0,0-7.377-7.075-7.415-7.21l0.9-.972c0.24,0.179,9.568,9.332,9.985,9.752C220.845,33.519,220.183,33.681,219.62,33.21ZM222.1,43.258l-0.477.1-0.074-.392,0.475-.113Zm-11.559,2.772-0.167.35-0.39-.181,0.161-.342Zm0.222-7.186a0.207,0.207,0,0,0,.184-0.151,0.711,0.711,0,0,1,.076-0.151c0.049,0,.073.061,0.073,0.183a1.171,1.171,0,0,1-.08.443,0.348,0.348,0,0,1-.318.261,0.716,0.716,0,0,1-.452-0.131,0.5,0.5,0,0,1-.353.229,2.926,2.926,0,0,1,.13.883,1.892,1.892,0,0,1-.065.523,0.087,0.087,0,0,1-.073.08,0.07,0.07,0,0,1-.065-0.08,4.417,4.417,0,0,0-.682-1.98l0.186-.386c0.022-.044.048-0.05,0.078-0.018q0.141,0.151.31,0.323a0.263,0.263,0,0,0,.2.079,0.51,0.51,0,0,0,.359-0.328,0.334,0.334,0,0,1,.153-0.181c0.045,0,.059.073,0.044,0.22a0.143,0.143,0,0,0,.11.135A0.431,0.431,0,0,0,210.765,38.843Zm1.8,0.3a1.733,1.733,0,0,1,.342-0.119A1,1,0,0,1,213.05,39a0.034,0.034,0,0,1,.037.039,0.374,0.374,0,0,1-.013.074L213,39.4a0.162,0.162,0,0,1-.037.087,2.186,2.186,0,0,0-.554.264,2.291,2.291,0,0,0-.475.4,3.546,3.546,0,0,0-.52.783,0.091,0.091,0,0,1-.071.063c-0.038,0-.057-0.027-0.057-0.083a0.212,0.212,0,0,1,.007-0.044,2.932,2.932,0,0,1,.619-1.263,0.531,0.531,0,0,1-.364-0.34,0.965,0.965,0,0,1,.215-0.5,0.645,0.645,0,0,1,.48-0.347,0.677,0.677,0,0,1,.532.307,0.189,0.189,0,0,1,.05.1,0.039,0.039,0,0,1-.046.042,0.277,0.277,0,0,1-.095-0.025,0.708,0.708,0,0,0-.266-0.048,0.521,0.521,0,0,0-.247.07,0.407,0.407,0,0,0-.188.172,0.481,0.481,0,0,0,.344.222C212.342,39.256,212.422,39.217,212.569,39.146Zm1.314,0.914q0.073-.222.195-0.728a6.6,6.6,0,0,0,.54.434l-0.209.693A5.932,5.932,0,0,0,213.883,40.06Zm1.749,5.784-0.137.275-0.353-.187L215.3,45.6l0.321,0.16,0.127-.271,0.364,0.181-0.17.344Zm-0.731,3.1-0.42-.091,0.084-.369,0.424,0.082Zm-3.012.125,0.179-.238,0.318,0.252-0.235.3-0.272-.227-0.189.242-0.307-.257,0.224-.3Zm-0.757-.87a0.112,0.112,0,0,1-.023-0.007V48.2l-0.164-.009a0.767,0.767,0,0,1-.61-0.276,1.384,1.384,0,0,1-.879.2l-0.334-.018a0.11,0.11,0,0,1-.057-0.022l-0.243-.032a0.292,0.292,0,0,1-.253-0.18,0.808,0.808,0,0,1-.032-0.325l0.095-1.533,0.331-.239a0.232,0.232,0,0,1,.044-0.021q0.018,0,.012.051l-0.135,1.478a1.4,1.4,0,0,0,0,.222,0.232,0.232,0,0,0,.188.084l0.088,0.011,0,0.015,0.413,0.022a1.227,1.227,0,0,0,.583-0.082,0.575,0.575,0,0,0-.384-0.277,0.311,0.311,0,0,0-.061,0c-0.059.007-.087,0-0.087-0.014a0.255,0.255,0,0,1,.032-0.067q0.117-.2.276-0.432a0.386,0.386,0,0,1,.162-0.052,0.817,0.817,0,0,1,.175-0.013,0.7,0.7,0,0,1,.372.14,0.381,0.381,0,0,1,.2.329,0.592,0.592,0,0,1-.083.213,1.272,1.272,0,0,1-.125.2,0.521,0.521,0,0,0,.36.128h0.017l0.288-.01c0.065,0,.161,0,0.29,0s0.225,0,.289,0a1.165,1.165,0,0,0,.322-0.041,1.347,1.347,0,0,0-.254-0.426l0.229-.4c0.018-.031.037-0.033,0.056-0.008a1.62,1.62,0,0,1,.3.832l0.921-.093-0.323-1.456,0.267-.33a0.133,0.133,0,0,1,.051-0.047c0.011,0,.02.019,0.027,0.063q0.26,1.577.275,1.741v0.008l0.209-.036c0.064-.011.159-0.023,0.287-0.038s0.223-.027.287-0.038a1.174,1.174,0,0,0,.313-0.084,1.327,1.327,0,0,0-.308-0.388l0.173-.427c0.014-.033.033-0.038,0.055-0.015a1.629,1.629,0,0,1,.414.788l0.223-.055c0.063-.016.157-0.035,0.283-0.06s0.221-.044.283-0.059a1.226,1.226,0,0,0,.307-0.107,1.3,1.3,0,0,0-.337-0.364l0.143-.439c0.011-.035.029-0.041,0.053-0.019a1.664,1.664,0,0,1,.528.9,1.577,1.577,0,0,1,.052.254,1.024,1.024,0,0,1-.623.261c-0.061.015-.155,0.033-0.28,0.054s-0.22.038-.281,0.054l-0.184.046a0.094,0.094,0,0,1-.111-0.043,1.15,1.15,0,0,1-.617.2c-0.062.01-.156,0.022-0.283,0.033s-0.222.022-.285,0.033l-0.186.032a0.094,0.094,0,0,1-.108-0.051,1.108,1.108,0,0,1-.422.1c-0.085.007-.244,0.022-0.523,0.05l-0.188.019a0.1,0.1,0,0,1-.1-0.051,1.194,1.194,0,0,1-.629.11c-0.062,0-.158,0-0.286-0.006s-0.222-.007-0.285,0Zm2.179-.12,0.022,0,0.061-.005Zm-5.4-.151a1.3,1.3,0,0,1-.525-0.011q-0.87-.091-1.057-0.135a1,1,0,0,1-.511-0.268,0.557,0.557,0,0,1-.139-0.541,1.01,1.01,0,0,1,.306-0.47,0.219,0.219,0,0,1,.109-0.078c0.007,0,.009.011,0,0.029a0.379,0.379,0,0,1-.036.087,0.751,0.751,0,0,0-.066.179q-0.108.47,0.622,0.641a7.667,7.667,0,0,0,1.13.158,1.2,1.2,0,0,0-.2-0.527L207.9,46.7c0.018-.014.033-0.01,0.046,0.013a0.976,0.976,0,0,1,.107.742A2.769,2.769,0,0,1,207.912,47.923ZM207.769,38.4a0.262,0.262,0,0,1,.088.1,2.84,2.84,0,0,1,.39.9,3.837,3.837,0,0,1,.132.979,2.093,2.093,0,0,1-.059.528,0.1,0.1,0,0,1-.078.1c-0.034,0-.055-0.036-0.062-0.107a4.76,4.76,0,0,0-.245-1.145A4.437,4.437,0,0,0,207.554,39q0.085-.277.163-0.5A0.143,0.143,0,0,1,207.769,38.4Zm-1.34,7.739,0.254-.24,0.339,0.342-0.258.239Zm1.183,0.217-0.257.239-0.335-.341,0.253-.24Zm-3.06.24q0.087-.262.219-0.742c0.093-.348.164-0.6,0.21-0.743l0.412-.253a0.058,0.058,0,0,1,.038-0.014c0.008,0,.007.021,0,0.055l-0.521,1.719a0.536,0.536,0,0,1-.2.217,1.279,1.279,0,0,1-.255.161,0.127,0.127,0,0,1-.052.016,0.07,0.07,0,0,1,.011-0.059C204.486,46.782,204.532,46.663,204.552,46.6Zm-0.149.417h0s0,0,0,0h0Zm-7.6-4.553a0.953,0.953,0,0,1,.251-0.133,0.8,0.8,0,0,1,.328-0.09,0.664,0.664,0,0,1,.3.145,2.194,2.194,0,0,1,.267.227l0.129,0.13,0.011-.013,0.464,0.372a0.216,0.216,0,0,0,.221.013c0.225-.112.354-0.173,0.387-0.184a0.5,0.5,0,0,1,.491.033,0.232,0.232,0,0,1,.046.237c0,0.026-.032.117-0.081,0.271a1.722,1.722,0,0,1-.148.383,0.445,0.445,0,0,1-.429.225,0.562,0.562,0,0,1-.2-0.117,1.017,1.017,0,0,1-.314-0.357,0.68,0.68,0,0,1-.041-0.208,0.471,0.471,0,0,1-.228.054,0.589,0.589,0,0,1-.211-0.126l-0.175-.141a0.089,0.089,0,0,1-.013-0.112l-0.073.074-0.129-.129c-0.031-.031-0.075-0.081-0.13-0.148s-0.1-.116-0.13-0.147a0.641,0.641,0,0,0-.209-0.153,1.846,1.846,0,0,1,.23.641,1.117,1.117,0,0,1-.15.118,0.564,0.564,0,0,1-.16.09,0.992,0.992,0,0,1-.608-0.156,2.17,2.17,0,0,1-.523-0.38,0.734,0.734,0,0,1-.239-0.473,0.627,0.627,0,0,1,.2-0.484,1.226,1.226,0,0,1,.8-0.351,0.084,0.084,0,0,1,.064.014,0.015,0.015,0,0,1,0,.024,0.088,0.088,0,0,1-.046.019,1.053,1.053,0,0,0-.535.244,0.368,0.368,0,0,0-.055.429,1.172,1.172,0,0,0,.266.384,1.662,1.662,0,0,0,.554.413c-0.028-.067-0.079-0.186-0.153-0.358A0.307,0.307,0,0,1,196.8,42.464Zm2.428,1.239q0.179-.34.029-0.461a0.236,0.236,0,0,0-.157-0.055,0.753,0.753,0,0,0-.2.047A0.715,0.715,0,0,0,199.227,43.7Zm2.9,1.743a0.432,0.432,0,0,0,.065-0.1,0.615,0.615,0,0,0,.046-0.169L202.643,45a0.732,0.732,0,0,1-.061.2,1.2,1.2,0,0,1-.262.351,1.906,1.906,0,0,0,.41.232,1.5,1.5,0,0,0,.392.144,0.311,0.311,0,0,0,.089-0.114,0.33,0.33,0,0,0,.031-0.138l0.42-.177a0.455,0.455,0,0,1-.047.167,1.028,1.028,0,0,1-.256.334,0.654,0.654,0,0,0,.317.27,0.309,0.309,0,0,0,.192.045,0.873,0.873,0,0,0,.06-0.4l0.4-.182a1.47,1.47,0,0,1-.184.651c-0.014.03-.026,0.055-0.038,0.077l-0.168.318q-0.049.1-.321-0.031a1.6,1.6,0,0,1-.347-0.228,1.324,1.324,0,0,1-.227-0.235,0.539,0.539,0,0,1-.231.032,1.089,1.089,0,0,1-.336-0.109,1.458,1.458,0,0,1-.549-0.367,0.776,0.776,0,0,1-.423-0.09l-0.218-.1a0.113,0.113,0,0,1-.055-0.066,0.114,0.114,0,0,1,0-.075l-0.041.065-0.113-.073a0.428,0.428,0,0,1-.166-0.444,1.414,1.414,0,0,1,.167-0.5,3.406,3.406,0,0,1-.343.22,1.251,1.251,0,0,1-.366.157,0.608,0.608,0,0,1-.337-0.042,3.444,3.444,0,0,1-.429-0.251,0.522,0.522,0,0,1-.233-0.193,0.309,0.309,0,0,1,.189.031,2.041,2.041,0,0,0,.845.121l0.192-.3a1.152,1.152,0,0,0,.006-0.765,0.284,0.284,0,0,1-.158.054,0.677,0.677,0,0,1-.072-0.323,0.515,0.515,0,0,1,.028-0.3,0.7,0.7,0,0,1,.169-0.149,0.237,0.237,0,0,1,.237-0.072,1.35,1.35,0,0,1,.169.694,1.169,1.169,0,0,1-.084.666,1.48,1.48,0,0,1-.082.142,3.517,3.517,0,0,1-.258.349,0.8,0.8,0,0,0,.423-0.169,1.261,1.261,0,0,0,.266-0.325l0.4-.66,0.311-.058a0.086,0.086,0,0,1,.052,0c0.007,0,0,.021-0.014.05l-0.537.887q-0.366.608-.1,0.778l0.1,0.066-0.013.019,0.349,0.164A0.785,0.785,0,0,0,202.123,45.446Zm6.8-10.384a3.645,3.645,0,0,0,3.062-1.984c-0.68-.593-3.8-3.8-4.7-4.409,0.313-.411.526-0.688,0.875-1.1,0,0,3.357,3.172,4.391,4.173,0.859,0.832.17,0.567,2.281,0.567-0.452-.5-5.28-5.158-5.823-5.758l1.01-.966c0.275,0.414,8,7.7,8.094,8.047h-2.953c-1.478,0-1.93-.191-2.338.62a4.444,4.444,0,0,1-3.678,2.246,4.1,4.1,0,0,1-3.827-2.646c-1.2,0-2.034.11-3.281,0.11l1.01-1.187c0.361-.394.713-0.716,1.095-1.1a15.7,15.7,0,0,1,2.16-2.122,24.215,24.215,0,0,0,.162,3.915A3.1,3.1,0,0,0,208.924,35.063Zm-3.609-2.425a1.371,1.371,0,0,0-.136-0.577l-0.849.908h0.985V32.638Zm-37.147-1.646a3.932,3.932,0,0,1-.959,1.263,3.284,3.284,0,0,1-1.264.572,8.459,8.459,0,0,1-1,.907,5.246,5.246,0,0,1-1.085.674,2.179,2.179,0,0,1-.528.109c-0.184.013-.359,0.031-0.528,0.05a1.8,1.8,0,0,0-.951.276,9.727,9.727,0,0,0-1.666,1.943,3.627,3.627,0,0,1-2.944,1.871A2.754,2.754,0,0,1,154.6,37.09a7.315,7.315,0,0,1-.535-3.147q0-.551.365-3.422t0.549-4.112q0.186-1.239.425-2.632t0.46-2.248q0.253-.71.543-1.435t0.6-1.436q0.209-.319.268,0.1-0.372,2.407-.684,5t-0.424,3.7q-0.111,1.117-.111,1.305-0.075,1.189-.075,1.7v0.2a6.568,6.568,0,0,0,.349,1.479,2.848,2.848,0,0,0,.975,1.363,3.318,3.318,0,0,0,1.858.479,3.249,3.249,0,0,0,2.483-.972,3.528,3.528,0,0,1,1.279-1.059,1.182,1.182,0,0,1,.565-0.007,2.068,2.068,0,0,0,.55.051,2.133,2.133,0,0,0,1.33-.529,5,5,0,0,0,1.049-1.284,0.229,0.229,0,0,1,.06-0.087,0.185,0.185,0,0,1,.208-0.043,2.256,2.256,0,0,0,.454.087,0.638,0.638,0,0,0,.4-0.116,1.6,1.6,0,0,0,.425-0.471,7.916,7.916,0,0,0,.52-0.994c0.149-.415.292-0.59,0.431-0.522q0.148,0.029.045,0.667A9.407,9.407,0,0,1,168.168,30.992Zm-15.248-10.4a4.838,4.838,0,0,1-.438.6c-0.154.18-.315,0.351-0.483,0.515a1.846,1.846,0,0,1-.238.218q-0.164.13-.342,0.246a1.388,1.388,0,0,1-.342.167,0.209,0.209,0,0,1-.238-0.037q-0.536-.42-1.056-0.856a9.189,9.189,0,0,0-1.145-.812,0.168,0.168,0,0,1-.1-0.138,0.616,0.616,0,0,1,.082-0.2L151,16.759a0.255,0.255,0,0,1,.208-0.137,0.5,0.5,0,0,1,.223.079,7.3,7.3,0,0,1,.625.391,5.146,5.146,0,0,1,.58.471,3.473,3.473,0,0,1,.469.551,2.08,2.08,0,0,1,.289.66,1.581,1.581,0,0,1-.008.87A3.191,3.191,0,0,1,152.92,20.587Zm-2.668,10.985q0.466-1.34.914-2.806t0.646-1.987a0.612,0.612,0,0,1,.41-0.508c0.158,0.029.208,0.165,0.148,0.406q-0.639,3.828-1.153,5.714a24.6,24.6,0,0,1-.928,2.879,4.993,4.993,0,0,1-.915,1.515,4.809,4.809,0,0,1-1.828.993,18.059,18.059,0,0,1-2.224.66,11.3,11.3,0,0,1-1.115.2,0.438,0.438,0,0,1-.282-0.081,0.326,0.326,0,0,1,.1-0.311,6.138,6.138,0,0,1,1.181-1.073q0.9-.681,2.128-1.7a12.528,12.528,0,0,0,1.835-1.791A7.343,7.343,0,0,0,150.252,31.572Zm-10.981,7.1a2.373,2.373,0,0,1-1.836-1.1,5.989,5.989,0,0,1-.856-3.626q0-.551.365-3.422t0.549-4.112q0.186-1.239.425-2.632t0.461-2.248c0.168-.473.35-0.952,0.542-1.435s0.394-.962.6-1.436q0.209-.319.268,0.1-0.372,2.407-.684,5t-0.424,3.7c-0.073.744-.111,1.179-0.111,1.305q-0.075,1.189-.074,1.7a0.1,0.1,0,0,0,0,.017l0,0v0.768a3.381,3.381,0,0,0,.586,2.161,1.7,1.7,0,0,0,1.332.725,2.323,2.323,0,0,0,.453-0.957q0.319-.913.543-1.392a1.34,1.34,0,0,1,.944.617,2.129,2.129,0,0,1,.32.964,7.822,7.822,0,0,1-.7,3.219Q140.966,38.671,139.271,38.671ZM134.334,25.62l-0.223,2.175q-0.043.363-.074,0.725a29.63,29.63,0,0,1-1.9,8.324,21.685,21.685,0,0,1-2.513,4.568q-3.614,4.771-8.683,4.757a6.242,6.242,0,0,1-4.089-1.624,5.757,5.757,0,0,1-1.785-4.307,20.853,20.853,0,0,1,2.8-9.731l0.565-1.073c0.069-.019.094,0.1,0.074,0.348a3.632,3.632,0,0,1-.327,1.058q-0.342.812-.677,1.647t-0.587,1.653a13.643,13.643,0,0,0-.394,1.609,6.325,6.325,0,0,0-.1,1.516,4.239,4.239,0,0,0,1.91,3.2,7.374,7.374,0,0,0,3.769,1.095,10.977,10.977,0,0,0,5.576-1.479,10.277,10.277,0,0,0,3.2-3.234q1.977-2.625,1.68-7.193a6.021,6.021,0,0,1,.208-1.74q0.224-.783,1.264-3.437a2.338,2.338,0,0,1,.357-0.747c0.089-.082.154-0.1,0.193-0.044a0.677,0.677,0,0,1-.015.428Zm-7.345,7.468q-0.209.319-.387,0.551c-0.118.154-.235,0.295-0.348,0.42a4.274,4.274,0,0,1-.357.348c-0.125.106-.261,0.218-0.41,0.333a0.312,0.312,0,0,1-.133.087,0.424,0.424,0,0,1-.09.015,0.312,0.312,0,0,1-.3-0.131,4.743,4.743,0,0,0-.4-0.406q-0.269-.247-0.655-0.551l-1.234-.971a0.184,0.184,0,0,1-.081-0.225c0.034-.072.061-0.128,0.081-0.166q0.475-.826,1.019-1.711t1-1.61c0.05-.077.09-0.135,0.119-0.174a0.153,0.153,0,0,1,.09-0.065,0.145,0.145,0,0,1,.1.036,1.207,1.207,0,0,0,.178.1c0.188,0.136.4,0.288,0.647,0.456s0.493,0.366.751,0.588a2.607,2.607,0,0,1,.907,1.305,1.752,1.752,0,0,1-.052.82A3.968,3.968,0,0,1,126.989,33.088ZM114.574,15.794c-0.169.252-.34,0.485-0.513,0.7a5.785,5.785,0,0,1-.573.616,1.664,1.664,0,0,1-.342.29,0.926,0.926,0,0,1-.252.11,0.319,0.319,0,0,1-.179-0.008,0.594,0.594,0,0,1-.134-0.072q-0.521-.406-1.018-0.819a9.236,9.236,0,0,0-1.093-.776,0.31,0.31,0,0,1-.075-0.152,0.384,0.384,0,0,1,.075-0.167l2.26-3.393a0.251,0.251,0,0,1,.2-0.123,0.5,0.5,0,0,1,.215.079q0.3,0.174.6,0.37a3.555,3.555,0,0,1,.558.443,3.436,3.436,0,0,1,.446.53,1.752,1.752,0,0,1,.268.631,1.486,1.486,0,0,1-.007.841A3.279,3.279,0,0,1,114.574,15.794Zm-4.074-.841-0.045.174a0.1,0.1,0,0,1-.008.043,0.1,0.1,0,0,0-.007.043l-0.059.174c-0.02.039-.037,0.077-0.053,0.116a1.2,1.2,0,0,1-.051.116,0.026,0.026,0,0,1-.008.021,0.031,0.031,0,0,0-.007.022l-0.075.13a0.411,0.411,0,0,1-.074.124,0.52,0.52,0,0,0-.074.108,0.081,0.081,0,0,0-.03.043l-0.178.261-0.075.1a0.272,0.272,0,0,0-.052.072,0.255,0.255,0,0,1-.052.072,0.871,0.871,0,0,1-.1.13L109.31,17a0.082,0.082,0,0,0-.03.044c-0.019.019-.042,0.043-0.066,0.072a0.449,0.449,0,0,1-.082.073l-0.089.087a0.344,0.344,0,0,1-.119.116l-0.149.145-0.074.058a1.1,1.1,0,0,1-.283.174l-0.089.029h-0.1a0.286,0.286,0,0,1-.208-0.087c-0.219-.165-0.429-0.334-0.633-0.508s-0.418-.343-0.646-0.508c-0.07-.058-0.139-0.111-0.208-0.16q-0.314-.232-0.61-0.42a0.013,0.013,0,0,1-.015-0.015,0.2,0.2,0,0,1-.074-0.13,0.386,0.386,0,0,1,.074-0.174l2.275-3.379a0.041,0.041,0,0,1,.015-0.029,0.215,0.215,0,0,1,.223-0.1l0.03,0.014a0.04,0.04,0,0,1,.029.015l0.1,0.043a0.118,0.118,0,0,0,.059.036,0.145,0.145,0,0,1,.06.037l0.059,0.029a0.215,0.215,0,0,1,.059.044,0.736,0.736,0,0,1,.119.072c0.06,0.039.119,0.075,0.179,0.108a1.4,1.4,0,0,1,.178.124l0.06,0.044a4.561,4.561,0,0,1,.49.421l0.179,0.2,0.134,0.174a1.4,1.4,0,0,1,.163.29,0.558,0.558,0,0,1,.06.13l0.044,0.13a0.041,0.041,0,0,1,.015.029,0.107,0.107,0,0,0,.015.043,0.082,0.082,0,0,0,.015.058,0.2,0.2,0,0,0,.015.087,0.156,0.156,0,0,0,.015.072,0.327,0.327,0,0,0,.007.066,0.317,0.317,0,0,1,.007.065v0.2a0.308,0.308,0,0,1-.007.065A0.336,0.336,0,0,0,110.5,14.953Zm-3,9.245a1.881,1.881,0,0,1,1.086-.406q1.2,0.493,1.576.043,0.043-.044.877-1.262a0.736,0.736,0,0,1,.312-0.348,0.13,0.13,0,0,1,.149.145,1.6,1.6,0,0,1-.074.58q-0.1.406-.4,1.327A5.368,5.368,0,0,1,110.083,26a1.492,1.492,0,0,1-1.5.638,2.178,2.178,0,0,0-1.012,0,5.23,5.23,0,0,0-2.051,2.059q-1.428,2.089-2.974,2.088a2.8,2.8,0,0,1-1.913-.7,1.583,1.583,0,0,0-.927.531l-0.7.783q-0.238.333-.773,0.942A1.693,1.693,0,0,1,97,32.87a1.5,1.5,0,0,1-.506-0.13,1.721,1.721,0,0,0-.669-0.13c-0.007,0-.012-0.009-0.02-0.012l0,0.012a2.087,2.087,0,0,0-1.264.638L92.94,34.61c-0.178.135-.365,0.28-0.557,0.435a3.545,3.545,0,0,1-.624.4,2.616,2.616,0,0,1-.722.232,1.973,1.973,0,0,1-.877-0.081,17.418,17.418,0,0,1-2.736,2.321A4.231,4.231,0,0,1,85,38.657a3.609,3.609,0,0,1-1.323-.327,3.222,3.222,0,0,1-.937-0.674,3.367,3.367,0,0,1-.617-0.9,5.5,5.5,0,0,1-.357-1,6.011,6.011,0,0,1-.164-0.978q-0.037-.471-0.037-0.834,0-.551.364-3.422t0.55-4.112q0.186-1.239.424-2.632t0.461-2.248q0.253-.71.543-1.435t0.6-1.436q0.208-.319.268,0.1-0.372,2.407-.684,5t-0.424,3.7q-0.112,1.117-.112,1.305-0.074,1.189-.074,1.7a4.328,4.328,0,0,0,.386,1.986,2.9,2.9,0,0,0,1.093,1.233,3.2,3.2,0,0,0,1.621.442,5.278,5.278,0,0,0,1.955-.355c0-.116-0.008-0.256-0.022-0.42a2.117,2.117,0,0,0-.105-0.485,1.806,1.806,0,0,0-.208-0.428,0.657,0.657,0,0,0-.319-0.261,2.322,2.322,0,0,0-1.353.1,0.222,0.222,0,0,1-.268-0.145,0.446,0.446,0,0,1,.119-0.377,5.927,5.927,0,0,1,.907-0.92,6.606,6.606,0,0,1,1.2-.776,3.58,3.58,0,0,1,3.137.058,1.211,1.211,0,0,1,.8,1.552,4.813,4.813,0,0,1-.461.878,6.115,6.115,0,0,1-.684.848,1.884,1.884,0,0,0,.38-0.08c0.143-.043.289-0.094,0.438-0.152s0.294-.121.438-0.189l0.395-.188a4.169,4.169,0,0,0,.758-0.566q0.268-.232.58-0.537l0.223-.218h0.006c-0.007-.011-0.014-0.019-0.021-0.03q0.595-.783.639-0.827a1.625,1.625,0,0,1,1.145-.754,3.432,3.432,0,0,1,.729.1q0.4,0.116.743,0.2,0.981,0.13,1.308-1.639c0.049-.873.1-1.652,0.154-2.353,0-.034-0.006-0.064-0.006-0.1,0.005-.017.012-0.031,0.017-0.049,0.108-1.368.226-2.4,0.355-3.09a13.343,13.343,0,0,1,.565-2.255q0.357-.841,1.033-2.451t0.959-2.1c0.109-.145.194-0.169,0.253-0.073a0.754,0.754,0,0,1-.015.493,33.319,33.319,0,0,0-1.167,4.909c-0.047.482-.077,0.863-0.095,1.162a0.1,0.1,0,0,0,.013-0.009q-0.058,3.51,2.93,3.509a3.12,3.12,0,0,0,2.118-.746Q107.065,24.6,107.5,24.2ZM90.159,22.328a4.837,4.837,0,0,1-.439.6c-0.154.18-.314,0.351-0.483,0.515a1.82,1.82,0,0,1-.238.218q-0.164.13-.342,0.247a1.4,1.4,0,0,1-.342.167,0.209,0.209,0,0,1-.238-0.037q-0.535-.421-1.056-0.856a9.2,9.2,0,0,0-1.145-.812,0.167,0.167,0,0,1-.1-0.138,0.6,0.6,0,0,1,.082-0.2L88.241,18.5a0.254,0.254,0,0,1,.208-0.137,0.5,0.5,0,0,1,.223.079q0.312,0.174.624,0.392a5.071,5.071,0,0,1,.58.471,3.334,3.334,0,0,1,.468.551,2.032,2.032,0,0,1,.29.66,1.583,1.583,0,0,1-.007.87A3.228,3.228,0,0,1,90.159,22.328ZM79.037,31.442a13.934,13.934,0,0,1-1.145,1.849A6.651,6.651,0,0,1,76.346,34.8a15.648,15.648,0,0,1-2.825,1.523,27.9,27.9,0,0,1-3.672,1.2,33.682,33.682,0,0,1-4.661.849,42.771,42.771,0,0,1-4.884.29,30.408,30.408,0,0,1-4.193-.218,5.943,5.943,0,0,1-3.39-1.392,2.748,2.748,0,0,1-.907-2.175q0-.537.1-1.537t0.283-2q0.074-.42.134-0.754a1.431,1.431,0,0,1,.119-0.377,0.291,0.291,0,0,1,.164-0.167,0.172,0.172,0,0,1,.171.116,1.762,1.762,0,0,1,.156.472q0.059,0.363.163,0.754A2.083,2.083,0,0,0,54.4,32.783a22.97,22.97,0,0,0,8.178,1.16q1.918,0,4.3-.174a33.945,33.945,0,0,0,4.751-.689,23.329,23.329,0,0,0,3.992-1.189,14.5,14.5,0,0,0,2.3-1.131,5.542,5.542,0,0,0,1.219-1.109,4.012,4.012,0,0,1,.476-0.566,0.128,0.128,0,0,1,.1-0.021,0.118,0.118,0,0,1,.1.079,1.261,1.261,0,0,1-.074.638A10.433,10.433,0,0,1,79.037,31.442ZM68.674,25.994q-0.253.377-.513,0.7a5.525,5.525,0,0,1-.573.617,1.674,1.674,0,0,1-.342.29,0.854,0.854,0,0,1-.253.108,0.3,0.3,0,0,1-.178-0.007,0.583,0.583,0,0,1-.134-0.072q-0.52-.406-1.019-0.82a9.355,9.355,0,0,0-1.093-.775,0.307,0.307,0,0,1-.074-0.153,0.385,0.385,0,0,1,.074-0.166l2.26-3.394a0.257,0.257,0,0,1,.2-0.124,0.512,0.512,0,0,1,.216.08c0.2,0.116.4,0.239,0.6,0.37a3.465,3.465,0,0,1,.558.442,3.519,3.519,0,0,1,.446.529,1.767,1.767,0,0,1,.268.631,1.475,1.475,0,0,1-.007.841A3.255,3.255,0,0,1,68.674,25.994ZM64.6,25.153l-0.045.174a0.1,0.1,0,0,1-.007.044,0.1,0.1,0,0,0-.007.043l-0.059.174a1.161,1.161,0,0,0-.052.116,1.207,1.207,0,0,1-.052.116,0.029,0.029,0,0,1-.007.022,0.027,0.027,0,0,0-.007.021l-0.074.13a0.418,0.418,0,0,1-.074.123,0.556,0.556,0,0,0-.074.109,0.081,0.081,0,0,0-.03.043l-0.178.261-0.074.1a0.278,0.278,0,0,0-.052.073,0.283,0.283,0,0,1-.052.072,0.892,0.892,0,0,1-.1.131l-0.238.29a0.081,0.081,0,0,0-.03.043c-0.02.02-.042,0.044-0.067,0.073a0.383,0.383,0,0,1-.082.072l-0.089.087a0.338,0.338,0,0,1-.119.116l-0.149.145-0.074.058a1.074,1.074,0,0,1-.282.174L62.429,28h-0.1a0.289,0.289,0,0,1-.208-0.087q-0.327-.247-0.632-0.508t-0.647-.508q-0.1-.087-0.208-0.16-0.312-.232-0.61-0.421a0.013,0.013,0,0,1-.015-0.014,0.2,0.2,0,0,1-.074-0.131,0.382,0.382,0,0,1,.074-0.174l2.275-3.379a0.042,0.042,0,0,1,.015-0.029,0.215,0.215,0,0,1,.223-0.1l0.03,0.014a0.043,0.043,0,0,1,.03.015l0.1,0.043a0.132,0.132,0,0,0,.059.037,0.132,0.132,0,0,1,.059.036l0.059,0.029a0.241,0.241,0,0,1,.059.043,0.793,0.793,0,0,1,.119.073q0.089,0.058.178,0.109a1.305,1.305,0,0,1,.178.123l0.059,0.043q0.134,0.1.253,0.2t0.238,0.218l0.178,0.2,0.134,0.174a1.431,1.431,0,0,1,.164.29,0.565,0.565,0,0,1,.059.13L64.525,24.4a0.042,0.042,0,0,1,.015.029,0.107,0.107,0,0,0,.015.043,0.082,0.082,0,0,0,.015.058,0.2,0.2,0,0,0,.015.087,0.158,0.158,0,0,0,.015.072,0.311,0.311,0,0,0,.008.065,0.339,0.339,0,0,1,.007.066v0.2a0.327,0.327,0,0,1-.007.066A0.323,0.323,0,0,0,64.6,25.153ZM46.817,21.436q-0.119.747-.178,1.167-0.089.74-.178,1.668T46.3,26.177q-0.074.98-.149,1.907t-0.163,1.668a17.673,17.673,0,0,1-.729,3.7,18.167,18.167,0,0,1-1.145,2.7,2.364,2.364,0,0,1-1.056,1.3q-0.1,0,.06-0.522a9.038,9.038,0,0,0,.364-1.233q0.171-.74.3-1.588t0.238-1.74q0.1-.893.178-1.69,0.1-.754.178-2.254T44.6,25.881a7.737,7.737,0,0,1,.446-1.784l1.546-3.553a0.671,0.671,0,0,1,.312-0.435q0.193,0,.119.275A9.755,9.755,0,0,0,46.817,21.436ZM41.9,26.641a3.95,3.95,0,0,1-.959,1.263,3.289,3.289,0,0,1-1.264.572,8.555,8.555,0,0,1-1,.907,5.259,5.259,0,0,1-1.085.674,2.191,2.191,0,0,1-.528.109c-0.183.013-.359,0.031-0.528,0.05a1.807,1.807,0,0,0-.952.275,9.772,9.772,0,0,0-1.665,1.943,3.627,3.627,0,0,1-2.944,1.871,2.789,2.789,0,0,1-2.187-.891c-0.126.337-.278,0.708-0.482,1.144a13.824,13.824,0,0,1-1.018,1.8,6.477,6.477,0,0,1-1.569,1.632,3.394,3.394,0,0,1-2.059.711,1.516,1.516,0,0,1-.974-0.312,2.849,2.849,0,0,1-.706-0.877A2.521,2.521,0,0,1,21.7,36.5a0.154,0.154,0,0,1,.037-0.16,0.446,0.446,0,0,1,.111-0.044,1.05,1.05,0,0,0,.654-0.594,5.5,5.5,0,0,0,.431-1.189,9.262,9.262,0,0,0,.208-1.494q0.06-.87.059-1.494V30.26q0-.653.015-1.363a27.434,27.434,0,0,1,.431-4.06,19.773,19.773,0,0,1,1.4-4.1,0.5,0.5,0,0,1,.29-0.348q0.111,0.014.082,0.2A21.4,21.4,0,0,0,24.878,26q-0.037,3.727-.149,4.938a10.913,10.913,0,0,1-.468,2.328,11.113,11.113,0,0,1-1.368,2.944,10.24,10.24,0,0,0,1.227-.073,4.7,4.7,0,0,0,1.145-.282,3.486,3.486,0,0,0,1-.6,3.312,3.312,0,0,0,.8-1.058,6.307,6.307,0,0,0,.52-1.632,13.251,13.251,0,0,0,.2-2.327q0-1-.015-2.546t0.089-2.835a12.54,12.54,0,0,1,.758-3.118q0.654-1.828,1.249-3.22,0.1-.217.171-0.16a1.362,1.362,0,0,1,.007.653,21.791,21.791,0,0,0-.282,3.219l-0.045,3.89v0.2a6.477,6.477,0,0,0,.349,1.479,2.837,2.837,0,0,0,.974,1.363,3.323,3.323,0,0,0,1.859.479,3.249,3.249,0,0,0,2.483-.972,3.528,3.528,0,0,1,1.279-1.058,1.181,1.181,0,0,1,.565-0.008,2.052,2.052,0,0,0,.55.052,2.136,2.136,0,0,0,1.331-.529,5.008,5.008,0,0,0,1.048-1.284,0.229,0.229,0,0,1,.06-0.087,0.185,0.185,0,0,1,.208-0.044,2.256,2.256,0,0,0,.454.087,0.642,0.642,0,0,0,.4-0.116,1.6,1.6,0,0,0,.424-0.471,7.869,7.869,0,0,0,.52-0.994q0.223-.624.431-0.522,0.148,0.029.045,0.667A9.442,9.442,0,0,1,41.9,26.641ZM19.658,24.5q-0.744.377-2.037,1.139a15.431,15.431,0,0,0-1.873,1.239,10.952,10.952,0,0,0-1.234,1.226,4.571,4.571,0,0,0-.788,1.094l-0.013.007a0.461,0.461,0,0,0,.288.428,6.515,6.515,0,0,0,1.249.537,5,5,0,0,1,1.138.493,1.96,1.96,0,0,1,.729,1.769,15.285,15.285,0,0,1-.781,4.46,14.377,14.377,0,0,1-2.163,4.372,11.471,11.471,0,0,1-1.427,1.7A8.736,8.736,0,0,1,10.9,44.37a7.722,7.722,0,0,1-4.416,1.291,5.4,5.4,0,0,1-4.312-1.813,5.369,5.369,0,0,1-.922-1.907A7.909,7.909,0,0,1,1,40.02,16,16,0,0,1,1.444,36.7a26.318,26.318,0,0,1,1.026-3.292,32.636,32.636,0,0,1,1.42-3.176q0.8-1.552,1.628-2.973,0.134-.217.149-0.247,0.178-.275.312-0.217H5.993A0.179,0.179,0,0,1,6,26.968q-0.037.131-.171,0.464Q5.176,28.8,4.514,30.2A25.04,25.04,0,0,0,3.421,32.87a11.367,11.367,0,0,0-.8,4.481,3.715,3.715,0,0,0,1.405,2.741,5.7,5.7,0,0,0,3.635,1.015A9.248,9.248,0,0,0,11.45,40.3a10.143,10.143,0,0,0,2.424-1.465,7.442,7.442,0,0,0,1.628-1.8,3.168,3.168,0,0,0,.572-1.566,0.549,0.549,0,0,0-.29-0.493,3.1,3.1,0,0,0-.736-0.348q-0.431-.145-0.892-0.261a5.623,5.623,0,0,1-.743-0.232,2.6,2.6,0,0,1-1.108-.733,2.111,2.111,0,0,1-.409-1.457,6.352,6.352,0,0,1,.788-2.741c0.01-.012.021-0.015,0.031-0.027a12.676,12.676,0,0,1,.772-1.228,14.97,14.97,0,0,1,1.167-1.464A12.848,12.848,0,0,1,16,25.184a5.8,5.8,0,0,0,.907-0.87,0.7,0.7,0,0,0,.223-0.435,0.567,0.567,0,0,0-.4-0.348,0.471,0.471,0,0,1-.312-0.551q1.279-2.625,1.591-3.234a1.091,1.091,0,0,1,.907-0.638,6.643,6.643,0,0,1,2.3.856,1.562,1.562,0,0,1,.848,1.189,3.016,3.016,0,0,1-.788,1.871A4.849,4.849,0,0,1,19.658,24.5ZM90.04,41.629a0.041,0.041,0,0,1,.015-0.029,0.215,0.215,0,0,1,.223-0.1l0.03,0.014a0.043,0.043,0,0,1,.03.015l0.1,0.043a0.144,0.144,0,0,0,.059.037,0.124,0.124,0,0,1,.06.036l0.059,0.029a0.231,0.231,0,0,1,.059.044,0.773,0.773,0,0,1,.119.072c0.059,0.039.119,0.074,0.178,0.109a1.223,1.223,0,0,1,.178.123l0.059,0.044q0.134,0.1.253,0.2t0.238,0.218l0.178,0.2,0.134,0.174a1.426,1.426,0,0,1,.163.29,0.557,0.557,0,0,1,.059.13l0.045,0.13a0.041,0.041,0,0,1,.015.029,0.111,0.111,0,0,0,.015.044,0.082,0.082,0,0,0,.015.058,0.2,0.2,0,0,0,.015.087,0.158,0.158,0,0,0,.015.072,0.411,0.411,0,0,0,.007.065,0.271,0.271,0,0,1,.008.066v0.2a0.279,0.279,0,0,1-.008.066,0.393,0.393,0,0,0-.007.065l-0.045.174a0.086,0.086,0,0,1-.008.044,0.118,0.118,0,0,0-.007.043l-0.059.174c-0.02.039-.037,0.077-0.053,0.116a0.982,0.982,0,0,1-.051.116,0.028,0.028,0,0,1-.008.022,0.03,0.03,0,0,0-.007.021l-0.074.13a0.43,0.43,0,0,1-.074.123,0.527,0.527,0,0,0-.074.109,0.081,0.081,0,0,0-.03.043l-0.178.261-0.074.1a0.3,0.3,0,0,0-.053.072,0.251,0.251,0,0,1-.052.072,0.868,0.868,0,0,1-.1.13l-0.238.29a0.081,0.081,0,0,0-.03.043c-0.02.019-.042,0.043-0.067,0.072a0.38,0.38,0,0,1-.082.073l-0.089.087a0.337,0.337,0,0,1-.119.116l-0.149.145-0.074.058a1.075,1.075,0,0,1-.283.174l-0.089.029h-0.1a0.289,0.289,0,0,1-.208-0.087q-0.327-.247-0.632-0.508c-0.2-.174-0.418-0.343-0.646-0.508q-0.1-.087-0.208-0.16-0.312-.232-0.61-0.421a0.013,0.013,0,0,1-.015-0.015,0.2,0.2,0,0,1-.074-0.13,0.38,0.38,0,0,1,.074-0.174Zm4.55-.29a0.253,0.253,0,0,1,.2-0.124,0.5,0.5,0,0,1,.215.08c0.2,0.116.4,0.239,0.6,0.371a3.452,3.452,0,0,1,.558.442,3.541,3.541,0,0,1,.446.529,1.765,1.765,0,0,1,.268.632,1.482,1.482,0,0,1-.007.841,3.287,3.287,0,0,1-.439.9q-0.253.377-.513,0.7a5.655,5.655,0,0,1-.573.617,1.66,1.66,0,0,1-.342.29,0.85,0.85,0,0,1-.253.108,0.3,0.3,0,0,1-.178-0.007,0.589,0.589,0,0,1-.134-0.073q-0.521-.406-1.018-0.82a9.415,9.415,0,0,0-1.093-.775,0.314,0.314,0,0,1-.074-0.153,0.384,0.384,0,0,1,.074-0.166Zm8.089-6a0.251,0.251,0,0,1,.208-0.137,0.491,0.491,0,0,1,.223.079,7.346,7.346,0,0,1,.624.392,4.92,4.92,0,0,1,.58.471,3.346,3.346,0,0,1,.469.551,2.073,2.073,0,0,1,.29.661,1.58,1.58,0,0,1-.008.87,3.214,3.214,0,0,1-.468.943,5.155,5.155,0,0,1-.438.6c-0.155.178-.316,0.351-0.484,0.515a1.846,1.846,0,0,1-.238.218q-0.163.131-.342,0.247a1.432,1.432,0,0,1-.342.167,0.211,0.211,0,0,1-.238-0.037q-0.535-.42-1.056-0.856a9.219,9.219,0,0,0-1.144-.812,0.169,0.169,0,0,1-.1-0.138,0.628,0.628,0,0,1,.083-0.2Z"/>
</svg>
