<svg xmlns="http://www.w3.org/2000/svg" width="36" height="36" viewBox="0 0 36 36">
  <defs>
    <style>
      .cls-1 {
        display : none;
      }

      .cls-1, .cls-2 {
        fill-rule: evenodd;
      }

      .cls-2 {
        fill: #5f9ea5;
      }
    </style>
  </defs>
  <path id="_1" data-name="1" class="cls-1" d="M18,36A18,18,0,1,1,36,18,18,18,0,0,1,18,36ZM18,1A17,17,0,1,0,35,18,17,17,0,0,0,18,1Z"/>
  <path id="_2" data-name="2" class="cls-2" d="M9.157,15.814a0.543,0.543,0,0,1,0-.79l0.853-.86a0.533,0.533,0,0,1,.784,0l6.7,6.756,6.7-6.756a0.534,0.534,0,0,1,.785,0l0.853,0.86a0.545,0.545,0,0,1,0,.79L17.89,23.825a0.534,0.534,0,0,1-.785,0Z"/>
</svg>
