<svg xmlns="http://www.w3.org/2000/svg" width="36" height="36" viewBox="0 0 36 36">
  <defs>
    <style>
      .cls-1 {
        display : none;
      }

      .cls-1, .cls-2 {
        fill-rule: evenodd;
      }

      .cls-2 {
        fill: #5f9ea5;
      }
    </style>
  </defs>
  <path id="_1" data-name="1" class="cls-1" d="M18,36A18,18,0,1,1,36,18,18,18,0,0,1,18,36ZM18,1A17,17,0,1,0,35,18,17,17,0,0,0,18,1Z"/>
  <path id="_2" data-name="2" class="cls-2" d="M9.5,21.166a0.534,0.534,0,0,0,0,.786l0.861,0.854a0.544,0.544,0,0,0,.791,0l6.766-6.714,6.765,6.714a0.545,0.545,0,0,0,.792,0l0.861-.854a0.536,0.536,0,0,0,0-.786L18.316,13.2a0.544,0.544,0,0,0-.792,0Z"/>
</svg>
