<svg xmlns="http://www.w3.org/2000/svg" width="17" height="21" viewBox="0 0 17 21">
  <defs>
    <style>
      .cls-1 {
        fill: #bf7b1d;
        fill-rule: evenodd;
      }
    </style>
  </defs>
  <path id="Color_Fill_1" data-name="Color Fill 1" class="cls-1" d="M7.955,0L9.517,0.057c2.461,0.625,4.947,3.2,3.545,6.281A5.151,5.151,0,0,1,9.1,9.193,4,4,0,0,1,6.874,8.85c-1.806-.724-3.9-2.839-3-5.481A5.045,5.045,0,0,1,6.633.342,9.954,9.954,0,0,0,7.955,0ZM7.475,10.677c3.584-.043,6,0.892,7.51,2.8a10.114,10.114,0,0,1,1.382,1.77c0.762,1.589,1.145,4.126-.421,5.2-1.151.788-3.778,0.514-5.708,0.514H4.711a10.019,10.019,0,0,1-2.944-.171,3.1,3.1,0,0,1-1.682-3.54,8.285,8.285,0,0,1,4.927-5.881,13.987,13.987,0,0,1,1.5-.514A4.252,4.252,0,0,0,7.475,10.677Z"/>
</svg>
