<svg xmlns="http://www.w3.org/2000/svg" xmlns:xlink="http://www.w3.org/1999/xlink" width="41" height="53" viewBox="0 0 41 53">
  <defs>
    <style>
      .cls-1 {
        fill: #1130b3;
        fill-rule: evenodd;
        filter: url(#filter);
      }
    </style>
    <filter id="filter" x="0" y="0" width="41" height="53" filterUnits="userSpaceOnUse">
      <feFlood result="flood" flood-color="#4357b5"/>
      <feComposite result="composite" operator="in" in2="SourceGraphic"/>
      <feBlend result="blend" in2="SourceGraphic"/>
    </filter>
  </defs>
  <path id="Color_Fill_1_copy_2" data-name="Color Fill 1 copy 2" class="cls-1" d="M8.079,42.886V38.417H8.55c0.962,1.137,1.981,2.528,4.007,2.587l2.357-.235a5.324,5.324,0,0,0,2.828,0c1.081-.481,1.5-1.753,2.592-2.352V52.764H19.863C19.131,51.827,15.3,49.25,13.971,49a20.567,20.567,0,0,1-5.892,4V46.884a23.964,23.964,0,0,1-6.6-.705C-0.466,43.1.066,38.241,0.066,33.243V13.487c0-3.822-.231-8.435.471-11.525C1.315,1.436,1.958.383,2.894,0.08H30.468c4.14,0,8.8-.75,9.9,2.352,1.052,1.388.471,8.533,0.471,11.055V32.773c0,4.33.15,9.419-.707,12.7-2.762,1.762-10.395,2.055-14.847,1.176a3.525,3.525,0,0,1-.471-0.941c-2.6-4.008,8.979-2.926,11.784-2.822,1.02-3.091.236-8.4,0.236-11.995V4.313c-2.657-.874-7.238-0.235-10.37-0.235H4.308c-1.02,3.091-.236,8.4-0.236,11.995V42.65A14.562,14.562,0,0,0,8.079,42.886ZM9.965,10.194c7.023-.038,15.978-0.931,22.153.471a5.434,5.434,0,0,1,.471,2.587,4.145,4.145,0,0,1-.943.705c-1.2.747-4.658,0.235-6.363,0.235H9.258a3.534,3.534,0,0,1-.943-2.822A0.848,0.848,0,0,0,8.55,10.9l0.707-.235C9.439,10.5,9.783,10.356,9.965,10.194ZM9.493,18.426H21.277c1.288,0,3.619-.327,4.478.235,0.766,0.5.721,1.516,0.707,2.822a5.884,5.884,0,0,0-1.178.941H13.5c-1.288,0-3.619.326-4.478-.235C8.3,21.714,8.31,20.842,8.315,19.6a0.848,0.848,0,0,0,.236-0.47A4.245,4.245,0,0,0,9.493,18.426ZM13.5,25.952c2.839-.054,1.494.538,2.592,1.176,1.12,0.651,1.588-1.054,2.828.705,0.476,0.643.235,1.418,0.471,1.882,0.665,0.545,1.082.47,1.414,1.411,0.7,1.146-.4,1.477-0.707,2.117-0.29.611,0.158,2.321,0,3.057a8.934,8.934,0,0,0-3.535,2.823,1.321,1.321,0,0,0-1.178,0c-0.158-.07-0.6-0.668-0.707-0.705-1.031-.367-1.791,1.249-2.593.47-1.177-.419-0.623-1.339-1.414-1.881C9.64,36.3,9.067,37.1,8.55,35.83c-0.539-.875.33-1.671,0-2.587-0.213-.593-0.8-0.822-0.943-1.882A7.286,7.286,0,0,1,8.55,29.95c0.317-.225.758,0.106,0.943-0.235,0.434-.8-0.684-1.325.707-2.352C11.518,26.438,12.15,27.411,13.5,25.952ZM13.264,29.48c-0.743.635-1.794,1.087-2.121,2.117a3.375,3.375,0,0,0,4.242,4.234C18.869,34.62,18.228,29.215,13.264,29.48Z"/>
</svg>
