<svg xmlns="http://www.w3.org/2000/svg" xmlns:xlink="http://www.w3.org/1999/xlink" width="45" height="45" viewBox="0 0 45 45">
  <defs>
    <style>
      .cls-1 {
        fill: #2c3f96;
        fill-rule: evenodd;
        filter: url(#filter);
      }
    </style>
    <filter id="filter" x="0" y="0" width="45" height="45" filterUnits="userSpaceOnUse">
      <feFlood result="flood" flood-color="#4357b5"/>
      <feComposite result="composite" operator="in" in2="SourceGraphic"/>
      <feBlend result="blend" in2="SourceGraphic"/>
    </filter>
  </defs>
  <path id="Color_Fill_1" data-name="Color Fill 1" class="cls-1" d="M24.946,0c2.044-.02,2.637.949,3.629,1.933,1.637,1.626,3.23,3.3,4.867,4.922l2.39,2.285a3.251,3.251,0,0,1,0,3.164,3.134,3.134,0,0,1-3.983.791,22.98,22.98,0,0,1-3.186-3.163,23.042,23.042,0,0,1-3.186-3.165H25.389V6.855l-6.46,6.328a3.107,3.107,0,0,1-3.894-.967c-1-1.55.155-3.229,0.973-4.043l5.222-5.1,2.39-2.461C24,0.333,24.539.282,24.946,0Zm-2.3,11.426h5.664V22.587H22.645V11.425ZM16.981,25.4H11.406V25.224a5.117,5.117,0,0,1-.088-0.79,2.5,2.5,0,0,0-1.682-1.758c-2.343-.692-3.9.642-3.894,2.724A2.75,2.75,0,0,0,6.1,26.982c0.97,1.406,4.946,1.23,7.434,1.23H33.885v5.626H17.247c-8,0-14.843.094-16.815-5.889-1.637-4.966,1.684-8.92,4.956-10.283a8.46,8.46,0,0,1,5.31-.439C14.12,18.318,17.009,20.915,16.981,25.4Zm17.081-5.361c1.842,0.2,2.446,1.286,3.452,2.285,1.858,1.846,3.739,3.671,5.487,5.625,0.676,0.756,2.317,1.657,1.947,3.34-0.378,1.717-1.607,2.475-2.655,3.516-0.782.776-1.519,1.6-2.3,2.373L38.044,39.2l-0.974.879a5.37,5.37,0,0,1-1.593,1.582,2.924,2.924,0,0,1-1.77.263,2.991,2.991,0,0,1-1.947-4.394,10.141,10.141,0,0,1,1.593-1.582l2.478-2.637a16.479,16.479,0,0,0,2.3-2.373,16.612,16.612,0,0,1-2.39-2.461,35.294,35.294,0,0,1-3.363-3.427l-0.531-.44a3.579,3.579,0,0,1-.266-2.9,3.337,3.337,0,0,1,1.593-1.494A7.2,7.2,0,0,0,34.062,20.038ZM11.406,36.562h5.576V45H11.406V36.562Zm11.24,0h5.576a10.623,10.623,0,0,1,.088,2.725V45H22.645V36.562Z"/>
</svg>
