<svg xmlns="http://www.w3.org/2000/svg" width="41" height="47" viewBox="0 0 41 47">
  <defs>
    <style>
      .cls-1 {
        fill: #4357b5;
        fill-rule: evenodd;
      }
    </style>
  </defs>
  <path id="Color_Fill_1" data-name="Color Fill 1" class="cls-1" d="M40.838,13.486V32.773c0,4.33.15,9.419-.707,12.7-2.762,1.762-19.395,2.055-23.847,1.176a3.535,3.535,0,0,1-.471-0.941c-2.6-4.008,17.979-2.927,20.784-2.822,1.02-3.091.236-8.4,0.236-11.995V4.313c-2.657-.874-7.238-0.235-10.37-0.235H4.308c-1.02,3.091-.236,8.4-0.236,11.995V42.651A14.152,14.152,0,0,0,8,42.887V43h2a2,2,0,0,1,0,4H8a1.983,1.983,0,0,1-.681-0.127,23.382,23.382,0,0,1-5.839-.694C-0.466,43.1.066,38.241,0.066,33.243V13.486c0-3.821-.231-8.435.471-11.525C1.315,1.436,1.958.383,2.894,0.08H30.468c4.14,0,8.8-.75,9.9,2.352C41.418,3.82,40.838,10.965,40.838,13.486ZM17.8,11.657a11.1,11.1,0,0,1,1.687-.532,3.039,3.039,0,0,0,.787-0.118,8.673,8.673,0,0,1,2.474.178A8.561,8.561,0,0,1,28.54,22.233a40.323,40.323,0,0,1-5.173,10.4c-0.753,1.13-1.682,2.186-2.362,3.368H20.949V35.94a3.879,3.879,0,0,1-.731-1c-0.654-.956-1.33-1.889-1.968-2.9a40.525,40.525,0,0,1-4.892-9.926,9.673,9.673,0,0,1,.619-6.853A8.667,8.667,0,0,1,17.8,11.657Zm1.855,11.758a3.4,3.4,0,0,0,1.968.237,4.375,4.375,0,0,0,3.149-2.6,4.5,4.5,0,0,0-2.249-5.672,4.815,4.815,0,0,0-2.024-.3,9.471,9.471,0,0,1-1.237.355A4.506,4.506,0,0,0,17.126,17.8,4.328,4.328,0,0,0,19.656,23.414Z"/>
</svg>
