<svg xmlns="http://www.w3.org/2000/svg" width="41" height="47" viewBox="0 0 41 47">
  <defs>
    <style>
      .cls-1 {
        fill: #4357b5;
        fill-rule: evenodd;
      }
    </style>
  </defs>
  <path id="_" data-name="?" class="cls-1" d="M40.838,13.486V32.773c0,4.33.15,9.419-.707,12.7-2.762,1.762-10.395,2.055-14.847,1.176a3.532,3.532,0,0,1-.471-0.941c-2.6-4.008,8.979-2.927,11.784-2.822,1.02-3.091.236-8.4,0.236-11.995V4.313c-2.657-.874-7.238-0.235-10.37-0.235H4.308c-1.02,3.091-.236,8.4-0.236,11.995V42.651A14.152,14.152,0,0,0,8,42.887V43h2a2,2,0,0,1,0,4H8a1.982,1.982,0,0,1-.68-0.127,23.383,23.383,0,0,1-5.839-.694C-0.466,43.1.066,38.241,0.066,33.243V13.486c0-3.821-.231-8.435.471-11.525C1.315,1.436,1.958.383,2.894,0.08H30.468c4.14,0,8.8-.75,9.9,2.352C41.418,3.82,40.838,10.965,40.838,13.486Zm-31.58.706a3.533,3.533,0,0,1-.943-2.822,0.847,0.847,0,0,0,.236-0.47l0.707-.236c0.182-.16.526-0.308,0.707-0.47,7.023-.038,15.978-0.931,22.153.47a5.437,5.437,0,0,1,.471,2.587,4.145,4.145,0,0,1-.943.705c-1.2.747-4.658,0.235-6.363,0.235H9.258Zm16.026,8.232H13.5c-1.288,0-3.619.327-4.478-.235C8.3,21.714,8.31,20.843,8.315,19.6a0.848,0.848,0,0,0,.236-0.47,4.277,4.277,0,0,0,.943-0.706H21.277c1.288,0,3.619-.327,4.478.235,0.766,0.5.721,1.516,0.707,2.823A5.882,5.882,0,0,0,25.283,22.424ZM11.172,31.74a5.118,5.118,0,0,1,.864-2.726,6.65,6.65,0,0,1,2.521-2.287,7.931,7.931,0,0,1,3.866-.906,8.256,8.256,0,0,1,3.625.758,5.881,5.881,0,0,1,2.428,2.06,5.054,5.054,0,0,1,.857,2.832,4.379,4.379,0,0,1-.489,2.11,6.463,6.463,0,0,1-1.161,1.565q-0.673.658-2.414,2.216a9.817,9.817,0,0,0-.772.772,3.124,3.124,0,0,0-.432.609,2.97,2.97,0,0,0-.22.552q-0.078.276-.234,0.97a1.576,1.576,0,0,1-1.685,1.473,1.722,1.722,0,0,1-1.239-.481,1.891,1.891,0,0,1-.5-1.43,5.021,5.021,0,0,1,1.345-3.59,22.378,22.378,0,0,1,1.643-1.565q0.906-.793,1.31-1.2a4.06,4.06,0,0,0,.68-0.9,2.174,2.174,0,0,0,.276-1.076,2.5,2.5,0,0,0-.842-1.912,3.077,3.077,0,0,0-2.174-.779,3.007,3.007,0,0,0-2.294.786,6.265,6.265,0,0,0-1.246,2.315,1.876,1.876,0,0,1-1.827,1.6,1.8,1.8,0,0,1-1.338-.559A1.71,1.71,0,0,1,11.172,31.74Zm6.91,11.286a2.08,2.08,0,0,1,2.11,2.11,1.977,1.977,0,0,1-.637,1.558,2.151,2.151,0,0,1-1.473.566,2.228,2.228,0,0,1-1.508-.559,1.961,1.961,0,0,1-.644-1.565,2.015,2.015,0,0,1,.623-1.5A2.1,2.1,0,0,1,18.082,43.026Z"/>
</svg>
