<svg xmlns="http://www.w3.org/2000/svg" xmlns:xlink="http://www.w3.org/1999/xlink" width="41" height="47" viewBox="0 0 41 47">
  <defs>
    <style>
      .cls-1 {
        fill-rule: evenodd;
        filter: url(#filter);
      }
    </style>
    <filter id="filter" x="0" y="0" width="41" height="47.125" filterUnits="userSpaceOnUse">
      <feFlood result="flood" flood-color="#4357b5"/>
      <feComposite result="composite" operator="in" in2="SourceGraphic"/>
      <feBlend result="blend" in2="SourceGraphic"/>
    </filter>
  </defs>
  <path id="Rounded_Rectangle_12" data-name="Rounded Rectangle 12" class="cls-1" d="M40.838,13.486V32.773c0,4.33.15,9.419-.707,12.7-2.762,1.762-10.395,2.055-14.847,1.176a3.532,3.532,0,0,1-.471-0.941c-2.6-4.008,8.979-2.927,11.784-2.822,1.02-3.091.236-8.4,0.236-11.995V4.313c-2.657-.874-7.238-0.235-10.37-0.235H4.308c-1.02,3.091-.236,8.4-0.236,11.995V42.651A14.152,14.152,0,0,0,8,42.887V43h2a2,2,0,0,1,0,4H8a1.982,1.982,0,0,1-.68-0.127,23.383,23.383,0,0,1-5.839-.694C-0.466,43.1.066,38.241,0.066,33.243V13.486c0-3.821-.231-8.435.471-11.525C1.315,1.436,1.958.383,2.894,0.08H30.468c4.14,0,8.8-.75,9.9,2.352C41.418,3.82,40.838,10.965,40.838,13.486ZM8.551,10.9l0.707-.236c0.182-.16.526-0.308,0.707-0.47,7.023-.038,15.978-0.931,22.153.47a5.437,5.437,0,0,1,.471,2.587,4.145,4.145,0,0,1-.943.705c-1.2.747-4.658,0.235-6.363,0.235H9.258a3.533,3.533,0,0,1-.943-2.822A0.847,0.847,0,0,0,8.551,10.9Zm2.131,15.526h1.595c1.288,0,3.619-.326,4.478.235,0.766,0.5.721,1.516,0.707,2.823a5.859,5.859,0,0,0-1.178.941H13.5c-1.288,0-3.619.326-4.478-.235C8.3,29.714,8.31,28.843,8.315,27.6a0.85,0.85,0,0,0,.236-0.471,4.247,4.247,0,0,0,.943-0.706h1.189ZM8.551,19.131a4.277,4.277,0,0,0,.943-0.706H21.277c1.288,0,3.619-.327,4.478.235,0.766,0.5.721,1.516,0.707,2.823a5.882,5.882,0,0,0-1.178.94H13.5c-1.288,0-3.619.327-4.478-.235C8.3,21.714,8.31,20.843,8.315,19.6A0.848,0.848,0,0,0,8.551,19.131ZM10.5,37.655a1.5,1.5,0,0,1,2.118-.111l5.178,5.579L28.742,30.959a1.5,1.5,0,0,1,2.23,2.007L18.93,46.345a1.5,1.5,0,0,1-2.118.111l-6.2-6.683A1.5,1.5,0,0,1,10.5,37.655Z"/>
</svg>
