<svg xmlns="http://www.w3.org/2000/svg" xmlns:xlink="http://www.w3.org/1999/xlink" width="41" height="47" viewBox="0 0 41 47">
  <defs>
    <style>
      .cls-1 {
        fill-rule: evenodd;
        filter: url(#filter);
      }
    </style>
    <filter id="filter" x="0" y="0" width="41" height="47.125" filterUnits="userSpaceOnUse">
      <feFlood result="flood" flood-color="#4357b5"/>
      <feComposite result="composite" operator="in" in2="SourceGraphic"/>
      <feBlend result="blend" in2="SourceGraphic"/>
    </filter>
  </defs>
  <path id="Rounded_Rectangle_12_copy_2" data-name="Rounded Rectangle 12 copy 2" class="cls-1" d="M10.386,22.461a1.554,1.554,0,0,1,2.2-.116l5.369,5.792L29.3,15.509a1.556,1.556,0,1,1,2.312,2.084L19.129,31.482a1.554,1.554,0,0,1-2.2.116L10.5,24.66A1.559,1.559,0,0,1,10.386,22.461Zm30.452-8.974V32.773c0,4.33.15,9.419-.707,12.7-2.762,1.762-19.395,2.055-23.847,1.176a3.532,3.532,0,0,1-.471-0.941c-2.6-4.008,17.979-2.927,20.784-2.822,1.02-3.091.236-8.4,0.236-11.995V4.313c-2.657-.874-7.238-0.235-10.37-0.235H4.308c-1.02,3.091-.236,8.4-0.236,11.995V42.651A14.153,14.153,0,0,0,8,42.887V43h2a2,2,0,0,1,0,4H8a1.982,1.982,0,0,1-.68-0.127,23.384,23.384,0,0,1-5.839-.694C-0.466,43.1.066,38.241,0.066,33.243V13.486c0-3.821-.231-8.435.471-11.525C1.315,1.436,1.958.383,2.894,0.08H30.468c4.14,0,8.8-.75,9.9,2.352C41.418,3.82,40.838,10.965,40.838,13.486Z"/>
</svg>
