<svg xmlns="http://www.w3.org/2000/svg" width="488" height="356" viewBox="0 0 488 356">
  <defs>
    <style>
      .cls-1 {
        fill: #1a2b5f;
        fill-rule: evenodd;
        opacity: 0.21;
      }
    </style>
  </defs>
  <path id="Color_Fill_1_copy_3" data-name="Color Fill 1 copy 3" class="cls-1" d="M35.853,350.044c3.511-1.767,5.777-2.6,11.816-2.54,4.357,2.561,11.169.4,16.879,1.693,12.7,2.88,28.552,2.212,41.354,5.08,6.274,1.405,11.969.51,15.858,1.723H35.48A26.835,26.835,0,0,1,35.853,350.044ZM169.2,351.737c-9.645,2.513-19.081,2.126-24.475-5.926-1.938-2.894-1.379-10.684-4.22-12.7-9.659,7.539-22.848-4.131-25.318-10.159-1.369-3.338.226-8.172-2.532-10.159-11.61,9.351-22.091-6.481-26.163-11.006-1.028-19.4,13.647-28.766,24.475-38.943,5.816-.463,8.953.1,14.347,0.847,7.593,9.5,9.082,9.043,6.752,24.551,19.971-2.212,27.484,1.218,25.319,23.7,15.17-2.183,24.6,2.2,25.318,16.932a63.86,63.86,0,0,1,15.192,0c1.765,2.34,5.124,3.56,6.751,5.926,1.256,1.826,1.1,3.587,2.532,5.08,0.187,6.242-.677,11.7-2.663,16.115H170.942C170.392,354.819,169.82,353.425,169.2,351.737ZM421.543,51.2c3.312,8.041,8.587,15.889,9.284,26.244-1.763,1.861-1.449,3.123-4.22,4.233-3.057,1.951-16.409,1.879-21.1.847-19.94-4.387-44.379-.238-64.141-4.233-1.083-1.754-1.753-1.949-2.532-4.233-0.811-1.2-.824-2.771-0.844-5.079l11.815-16.085C325.477,38.9,306.653,30.04,275.538,21.567c-19.041-5.185-53.14-4.751-71.737,0-10.532,2.69-19.049,2.7-28.694,5.926C143.29,38.149,110.083,56.442,91.555,80.828l-8.439,7.619c-8.184,10.889-20.7,23.823-24.475,38.1h63.3c0.651,0.577,1.884,1.109,2.532,1.693,1.262,1.375,1.31,1.712,1.688,4.232-4.175,5.038-7.737,20.258-4.22,29.631,4.7,12.513,26.609,27.015,48.106,22.011,19.326-4.5,34.553-13.549,49.794-22.858,6.511-3.976,13.367-10.341,21.943-11.852,7.463,11.732,18.78,21.149,27.006,32.17,20.614,27.621,43.562,52.78,64.141,80.426,7.49,10.062,35.266,30.933,24.475,49.1-2.636,4.439-7.343,5.909-10.971,9.313-7.178.424-13.364,0.945-18.567-2.54-2.107-1.41-2.12-3.127-5.064-4.233,0.678,12.491-6.973,29.122-25.319,23.705-4.555-1.345-6.811-5.172-10.972-6.773,0.864,26.565-20.1,27.109-36.29,16.932a28.69,28.69,0,0,1-.972,8.5H224.033c0.326-.853.629-1.708,0.867-2.57,4.988-17.979-7.433-33.57-16.035-38.943-3.206-2-10.85-2.2-13.5-4.233-1.237-.948-1.537-3.757-2.532-5.08a38,38,0,0,0-7.6-6.772c-2.561-1.707-7.971-2.017-10.127-4.233q-0.422-2.116-.844-4.233c-2.181-4.652-6.928-11.465-10.972-14.392l-13.5-6.773c-1.935-3-1.5-6.437-3.376-9.313-5.863-8.972-15.757-13.221-28.694-15.238-15.758-2.457-30.985,14.586-37.135,22.858-1.276,1.717-2.542,5.688-4.22,6.773H7.159A72.344,72.344,0,0,0,0,269.63V139.135C22.894,75.558,61.5,30.434,116.689,0H358.548c2.235,1.246,4.4,2.515,6.45,3.789,4.53,2.823,8.236,7.246,14.347,8.466A57.506,57.506,0,0,1,387.8,0h13.635C409.781,15.5,414.482,34.052,421.543,51.2ZM410.572,321.26c8.353-13.741,16.169-29.537,20.255-47.409H387.785c-2.162,1.841-11.654,8.352-12.66,7.619-6.293-2.348-20.676-23.414-25.319-29.63-19.555-26.186-42.781-49.761-62.453-76.194-2.241-3.011-6.2-5.455-8.439-8.465-6.957-9.335-25.747-38.621-38.822-38.943-5.5,5.131-13.637,6.962-20.255,11-14.007,8.556-31.555,21.461-48.106,26.244-10.543,3.048-28.4.01-31.227-7.619-10.594-12.082,12.3-23.413,18.568-27.937,19.275-13.907,36.831-31.605,57.389-44.023,4.072-2.46,10.8-4.612,15.191-5.926,3.574-1.07,8.191.058,10.972-1.693,23.407-.676,38.539,8.412,54.857,15.239,15.072,6.305,29.606,9.8,44.73,16.084,16.612,6.907,31.729,13.2,51.481,17.779H408.04c19.774,0,53.127-4.388,62.453,6.773,10.605,12.691,9.964,34.3,14.347,53.335,4.135,17.956,4.329,48.09,0,66.034-3.476,14.407-3.308,26.885-7.6,39.789A293.479,293.479,0,0,1,447.778,356h-62.3A247.023,247.023,0,0,0,410.572,321.26Z"/>
</svg>
