<svg xmlns="http://www.w3.org/2000/svg" width="29" height="29" viewBox="0 0 29 29">
  <defs>
    <style>
      .cls-1 {
        fill: #011e96;
        fill-rule: evenodd;
      }
    </style>
  </defs>
  <path id="_1" data-name="1" class="cls-1" d="M13.878,0A15.072,15.072,0,0,1,20.4,1.222,12.622,12.622,0,0,1,21.907,2a2.469,2.469,0,0,0,.827.487,4.157,4.157,0,0,1,.73-0.974h0.389a22.417,22.417,0,0,1,1.314,3.215,4.614,4.614,0,0,1,.535,1.51,0.561,0.561,0,0,1-.243.243,2.843,2.843,0,0,1-1.216.049c-1.15-.253-2.559-0.014-3.7-0.244A0.89,0.89,0,0,1,20.4,6.044a0.529,0.529,0,0,1-.049-0.292l0.681-.926a16.248,16.248,0,0,0-4.282-1.8,10.088,10.088,0,0,0-4.136,0c-0.607.155-1.1,0.155-1.654,0.341A10.284,10.284,0,0,0,6.141,6.434l-0.487.439A7.15,7.15,0,0,0,4.244,9.064H7.893C7.931,9.1,8,9.128,8.039,9.162a0.329,0.329,0,0,1,.1.243,2.162,2.162,0,0,0-.243,1.7,2.572,2.572,0,0,0,2.773,1.266,9.563,9.563,0,0,0,2.871-1.315,3.833,3.833,0,0,1,1.265-.682c0.43,0.675,1.083,1.217,1.557,1.851,1.188,1.589,2.511,3.037,3.7,4.628,0.432,0.578,2.033,1.78,1.411,2.825a2.788,2.788,0,0,1-.633.536,1.669,1.669,0,0,1-1.07-.146,1.092,1.092,0,0,0-.292-0.244,1.167,1.167,0,0,1-1.46,1.364c-0.263-.077-0.393-0.3-0.633-0.39,0.05,1.529-1.159,1.56-2.092.974a1.208,1.208,0,0,1-1.849,1.169,4.767,4.767,0,0,0,.389-0.828,2.123,2.123,0,0,0-.925-2.241c-0.185-.116-0.625-0.127-0.778-0.244a1.6,1.6,0,0,1-.146-0.292,2.192,2.192,0,0,0-.438-0.39,3.7,3.7,0,0,1-.584-0.244l-0.049-.243a2.515,2.515,0,0,0-.633-0.828L9.5,17.248c-0.112-.173-0.086-0.37-0.195-0.536a2.238,2.238,0,0,0-1.654-.877c-0.908-.141-1.786.839-2.141,1.315a1.8,1.8,0,0,1-.243.39H1.276a1.956,1.956,0,0,1-1.07-.925,8.733,8.733,0,0,1-.1-1.121,11.931,11.931,0,0,1,.584-5.212A14.457,14.457,0,0,1,9.256.978,20.221,20.221,0,0,1,12.37.15Zm0.973,6.284a6.915,6.915,0,0,1,3.163.877c0.869,0.363,1.707.564,2.579,0.926a17.722,17.722,0,0,0,2.968,1.023h0.827c1.14,0,3.063-.253,3.6.39,0.611,0.73.574,1.973,0.827,3.069a9.956,9.956,0,0,1,0,3.8c-0.2.829-.191,1.547-0.438,2.29a17.484,17.484,0,0,1-2.628,4.968,9.434,9.434,0,0,1-1.849,1.8c-0.235.177-.44,0.459-0.681,0.633a18.007,18.007,0,0,1-3.649,2,19.68,19.68,0,0,1-3.114.73,10.452,10.452,0,0,1-3.5.1l-1.946-.341a15.527,15.527,0,0,1-3.747-1.51,10.435,10.435,0,0,0-1.606-1.071,2.541,2.541,0,0,1-.779.877,0.46,0.46,0,0,1-.487,0,24.79,24.79,0,0,1-1.07-3.215,3.271,3.271,0,0,1-.389-1.705,1.221,1.221,0,0,1,.681-0.146,3.983,3.983,0,0,0,.973.1c0.732,0.166,1.646.127,2.384,0.292,0.665,0.149,1.219-.151,1.216.682a9.975,9.975,0,0,1-.73.877v0.049a9.916,9.916,0,0,1,1.508.974,12.784,12.784,0,0,0,3.26,1.169,10.968,10.968,0,0,0,5.5-.292,11.383,11.383,0,0,0,6.812-5.358A9.233,9.233,0,0,0,25.7,17.54H23.22a2.584,2.584,0,0,1-.73.439,7.768,7.768,0,0,1-1.46-1.7c-1.127-1.507-2.466-2.863-3.6-4.384-0.129-.174-0.357-0.314-0.487-0.487-0.4-.537-1.485-2.222-2.238-2.241a6.859,6.859,0,0,1-1.168.633,12.782,12.782,0,0,1-2.774,1.51,1.742,1.742,0,0,1-1.8-.439c-0.611-.695.709-1.347,1.07-1.607,1.111-.8,2.124-1.818,3.309-2.533a4.337,4.337,0,0,1,.876-0.341A3,3,0,0,0,14.851,6.288ZM8.477,18.368c1.151-.127,1.585.07,1.46,1.364,0.875-.125,1.418.127,1.46,0.974a3.7,3.7,0,0,1,.876,0c0.1,0.134.3,0.205,0.389,0.341a2.049,2.049,0,0,0,.146.292,1.31,1.31,0,0,1-1.362,1.607,1.483,1.483,0,0,1-.827-0.925,1.2,1.2,0,0,1-1.411-.341,3.032,3.032,0,0,0-.243-0.73,1.1,1.1,0,0,1-1.46-.584,1.266,1.266,0,0,0-.146-0.585c-0.669.538-1.274-.373-1.508-0.633-0.059-1.117.787-1.655,1.411-2.241a3.227,3.227,0,0,1,.827.049A1.225,1.225,0,0,1,8.477,18.368Z"/>
</svg>
